<svg id="Layer_1" data-name="Layer 1" xmlns="http://www.w3.org/2000/svg" viewBox="0 0 75 75"><defs><style>.cls-1{fill:#fff;}</style></defs><title>html</title><path class="cls-1" d="M67.12,45.65H7.88a.81.81,0,0,1-.81-.81V11.56a.81.81,0,0,1,.81-.81H67.12a.81.81,0,0,1,.81.81V44.84A.81.81,0,0,1,67.12,45.65ZM8.69,44H66.31V12.37H8.69Z"/><path class="cls-1" d="M43.42,49.06H31.57a.8.8,0,0,1-.8-.8.81.81,0,0,1,.8-.82H43.42a.82.82,0,0,1,.81.82A.8.8,0,0,1,43.42,49.06Z"/><path class="cls-1" d="M69.12,6H5.88A3.57,3.57,0,0,0,2.33,9.57V48.93a3.56,3.56,0,0,0,3.55,3.55H28.55a4.7,4.7,0,0,0-1.18,3.11v3.1H14.56A2.56,2.56,0,0,0,12,61.25V63a.81.81,0,0,0,.81.81H62.18A.81.81,0,0,0,63,63V61.25a2.56,2.56,0,0,0-2.56-2.56H47.62v-3.1a4.69,4.69,0,0,0-1.17-3.11H69.12a3.56,3.56,0,0,0,3.55-3.55V9.57A3.57,3.57,0,0,0,69.12,6ZM61.37,61.25v.94H13.63v-.94a.94.94,0,0,1,.93-.94H60.43A.94.94,0,0,1,61.37,61.25ZM46,55.59v3.1H29v-3.1a3.11,3.11,0,0,1,3.11-3.11H42.9A3.11,3.11,0,0,1,46,55.59Zm25-6.66a1.93,1.93,0,0,1-1.93,1.93H5.88A1.93,1.93,0,0,1,4,48.93V9.57A1.94,1.94,0,0,1,5.88,7.63H69.12a1.94,1.94,0,0,1,1.93,1.94Z"/><path class="cls-1" d="M61.17,21.32a.81.81,0,0,0,.81-.8V15.6a.82.82,0,0,0-.81-.81H13.83a.82.82,0,0,0-.81.81v4.92a.81.81,0,0,0,.81.8h5.3V25h-5.3a.81.81,0,0,0-.81.81v4.92a.81.81,0,0,0,.81.8h5.3v3.53H16.29a3.27,3.27,0,0,0,0,6.54h7.29a3.27,3.27,0,1,0,0-6.54H20.74V31.54H26a.81.81,0,0,0,.81-.8V25.82A.81.81,0,0,0,26,25h-5.3V21.32H45.68V25H40.39a.81.81,0,0,0-.81.81v4.7L37,35.07H31.19a.82.82,0,0,0-.81.82V40.8a.82.82,0,0,0,.81.81H43.4a.82.82,0,0,0,.81-.81V35.89a.82.82,0,0,0-.81-.82H38.88l2-3.53H52.09l1.69,3.53H51.42a3.27,3.27,0,0,0,0,6.54h7.29a3.27,3.27,0,0,0,0-6.54H55.57L53.4,30.55V25.82a.8.8,0,0,0-.8-.81H47.3V21.32Zm-35.94,17A1.65,1.65,0,0,1,23.58,40H16.29a1.65,1.65,0,0,1,0-3.3h7.29A1.65,1.65,0,0,1,25.23,38.34Zm17.36-1.65V40H32v-3.3Zm16.12,0a1.65,1.65,0,0,1,0,3.3H51.42a1.65,1.65,0,1,1,0-3.3ZM25.23,26.63v3.3H14.64v-3.3Zm26.56,0v3.3H41.2v-3.3ZM14.64,19.71v-3.3H60.36v3.3Z"/></svg>