<?xml version="1.0" encoding="utf-8"?>
<!-- Generator: Adobe Illustrator 23.0.3, SVG Export Plug-In . SVG Version: 6.00 Build 0)  -->
<svg version="1.1" id="Group_1282" xmlns="http://www.w3.org/2000/svg" xmlns:xlink="http://www.w3.org/1999/xlink" x="0px" y="0px"
	 viewBox="0 0 76.6 65.3" style="enable-background:new 0 0 76.6 65.3;" xml:space="preserve">
<style type="text/css">
	.st0{fill:#FFFFFF;}
</style>
<path id="Path_2525" class="st0" d="M72.9,61.1c0.7,0,1.2-0.5,1.2-1.2c0,0,0-0.1,0-0.1c0-0.9-0.5-1.3-1.7-1.3h-1.8v4.7h0.7v-2.1h0.8
	l0,0l1.3,2h0.7L72.9,61.1L72.9,61.1z M72.1,60.6h-0.8V59h1c0.5,0,1.1,0.1,1.1,0.8C73.4,60.6,72.8,60.6,72.1,60.6"/>
<path id="Path_2520" class="st0" d="M55.2,55.2h-9.6v-15c0-3.6-0.1-8.2-5-8.2c-5,0-5.8,3.9-5.8,7.9v15.3h-9.6V24.3h9.2v4.2h0.1
	c1.9-3.2,5.4-5.1,9.1-5c9.7,0,11.5,6.4,11.5,14.7L55.2,55.2z M14.4,20.1c-3.1,0-5.6-2.5-5.6-5.6s2.5-5.6,5.6-5.6
	c3.1,0,5.6,2.5,5.6,5.6S17.5,20.1,14.4,20.1L14.4,20.1 M19.2,55.2H9.6V24.3h9.6V55.2z M60,0H4.8C2.2,0,0,2.1,0,4.7v55.4
	c0,2.6,2.2,4.7,4.8,4.7H60c2.6,0,4.8-2.1,4.8-4.7V4.7C64.8,2.1,62.6,0,60,0"/>
<path id="Path_2526" class="st0" d="M72.2,56.4c-2.4,0-4.4,2-4.4,4.5c0,2.4,2,4.4,4.5,4.4c2.4,0,4.4-2,4.4-4.5
	C76.6,58.4,74.7,56.4,72.2,56.4L72.2,56.4 M72.2,64.7c-2.1,0-3.9-1.7-3.9-3.8S69.9,57,72,57c2.1,0,3.9,1.7,3.9,3.8c0,0,0,0,0,0.1
	c0,2.1-1.6,3.8-3.7,3.9L72.2,64.7"/>
</svg>
