<?xml version="1.0" encoding="utf-8"?>
<!-- Generator: Adobe Illustrator 23.0.3, SVG Export Plug-In . SVG Version: 6.00 Build 0)  -->
<svg version="1.1" id="Group_1282" xmlns="http://www.w3.org/2000/svg" xmlns:xlink="http://www.w3.org/1999/xlink" x="0px" y="0px"
	 viewBox="0 0 76.6 65.3" style="enable-background:new 0 0 76.6 65.3;" xml:space="preserve">
<style type="text/css">
	.st0{fill-rule:evenodd;clip-rule:evenodd;fill:#FFFFFF;}
</style>
<g>
	<path class="st0" d="M62.3,8.4c0-1.5-0.9-2.5-2.2-2.5c-2.7,0-4.8,0-7.7,0c0-1,0-1.4,0-2.1c0-1.5-1.2-2.6-2.5-2.6c-11,0-22.1,0-33,0
		L10.9,7c0,7.8,0,15.6,0,23.4c0,8.9,0,17.7,0,26.6c0,1.6,1.1,2.6,2.3,2.6c2.7,0,5.4,0,8.1,0c0,0.6,0,1.3,0,1.9
		c0,1.6,1.1,2.6,2.3,2.6c12.2,0,24.3,0,36.5,0c1.2,0,2.3-1,2.3-2.6C62.3,43.8,62.3,26.1,62.3,8.4z M14.3,57.1
		c-0.4,0-0.7-0.1-0.7-0.7l0-26c0-7.2-0.3-14.3-0.3-21.5c0.1,0,0-0.1,0.2-0.1h2c1.5,0,2.9-1.2,2.9-2.7V3.8c0,0-0.1-0.1-0.1-0.1
		c10.1,0,20.2,0,30.3,0c0.1,0,0.1,0,0.2,0c0.6,0,0.8,0.3,0.9,1c0,0.1,0,0.2,0,0.3c0,17,0,33.9,0,50.9c0,1.1-0.2,1.3-1.1,1.3
		L14.3,57.1z M60.1,9.5c0,17,0,33.9,0,50.9c0,1.1-0.2,1.3-1.1,1.3c-11.5,0-23,0-34.4,0c-0.2,0-0.3,0-0.5-0.1c-0.5-0.1-0.9-0.3-1-0.9
		c0-0.1,0-0.3,0-0.5c0-0.2,0.1-0.4,0.1-0.6c8.7,0,17.4,0,26.1,0c1.2,0,2.4-0.6,2.4-2.2c0-16.3,0.2-33.4,0.2-48.9c2.4,0,4.5,0,6.9,0
		c0.1,0,0.4,0,0.5,0C59.8,8.6,60.1,8.7,60.1,9.5C60.1,9.5,60.1,9.4,60.1,9.5z"/>
	<path class="st0" d="M46.7,14.6H22.7c-0.3,0-0.6,0.5-0.6,1c0,0.4,0.3,1,0.6,1h23.9c0.3,0,0.6-0.5,0.6-1
		C47.3,15.1,47,14.6,46.7,14.6z"/>
	<path class="st0" d="M46.5,19.4H16.1c-0.4,0-0.8,0.5-0.8,1c0,0.4,0.4,1,0.8,1h30.4c0.4,0,0.8-0.5,0.8-1
		C47.3,20,46.9,19.4,46.5,19.4z"/>
	<path class="st0" d="M46.5,24.3H16.1c-0.4,0-0.8,0.5-0.8,1c0,0.4,0.4,1,0.8,1h30.4c0.4,0,0.8-0.5,0.8-1
		C47.3,24.8,46.9,24.3,46.5,24.3z"/>
	<path class="st0" d="M46.5,29.1H16.1c-0.4,0-0.8,0.5-0.8,1c0,0.4,0.4,1,0.8,1h30.4c0.4,0,0.8-0.5,0.8-1
		C47.3,29.7,46.9,29.1,46.5,29.1z"/>
	<path class="st0" d="M39.8,38.8H15.9c-0.3,0-0.6,0.5-0.6,1c0,0.4,0.3,1,0.6,1h23.9c0.3,0,0.6-0.5,0.6-1
		C40.4,39.4,40.1,38.8,39.8,38.8z"/>
	<path class="st0" d="M46.5,34H16.1c-0.4,0-0.8,0.5-0.8,1c0,0.4,0.4,1,0.8,1h30.4c0.4,0,0.8-0.5,0.8-1C47.3,34.5,46.9,34,46.5,34z"
		/>
</g>
</svg>
