<?xml version="1.0" encoding="utf-8"?>
<!-- Generator: Adobe Illustrator 23.0.3, SVG Export Plug-In . SVG Version: 6.00 Build 0)  -->
<svg version="1.1" id="Layer_1" xmlns="http://www.w3.org/2000/svg" xmlns:xlink="http://www.w3.org/1999/xlink" x="0px" y="0px"
	 viewBox="0 0 150 150" style="enable-background:new 0 0 150 150;" xml:space="preserve">
<style type="text/css">
	.st0{fill:#FFFFFF;}
</style>
<g>
	<path class="st0" d="M108.9,113.1H38.5v12h70.3V113.1z M104.1,120.7h-9.6v-3.3h9.6V120.7z M71.2,24.1c0-2.1,1.7-3.9,3.9-3.9
		c2.1,0,3.9,1.7,3.9,3.9c0,2.1-1.7,3.9-3.9,3.9C73,28,71.2,26.2,71.2,24.1z M96.3,24.1c0-2.1,1.7-3.9,3.9-3.9c2.1,0,3.9,1.7,3.9,3.9
		c0,2.1-1.7,3.9-3.9,3.9C98.1,28,96.3,26.2,96.3,24.1z M108.9,81.7H38.5v12h70.3V81.7z M104.1,89.3h-9.6V86h9.6V89.3z M22.9,3.6
		v141.2h100.6V3.6H22.9z M100.2,13.9c5.6,0,10.2,4.6,10.2,10.2s-4.6,10.2-10.2,10.2c-5.6,0-10.2-4.6-10.2-10.2S94.6,13.9,100.2,13.9
		z M75.1,13.9c5.6,0,10.2,4.6,10.2,10.2s-4.6,10.2-10.2,10.2c-5.6,0-10.2-4.6-10.2-10.2S69.5,13.9,75.1,13.9z M115.2,131.4h-83
		v-24.6h83V131.4L115.2,131.4z M115.2,99.9h-83V75.3h83V99.9L115.2,99.9z M115.2,68.1h-83V43.5h83V68.1L115.2,68.1z M108.9,49.8
		H38.5v12h70.3V49.8z M104.1,57h-9.6v-3.3h9.6V57z"/>
</g>
</svg>
