<svg id="Layer_1" data-name="Layer 1" xmlns="http://www.w3.org/2000/svg" viewBox="0 0 250 250"><defs><style>.cls-1,.cls-2{fill:#fff;}.cls-1{fill-rule:evenodd;}</style></defs><title>web_tech</title><path class="cls-1" d="M164.82,213.38c-.49-1.82-4.35-3.5-7.3-6.41-5.39-5.3-5.59-15.71-5.59-15.71H98.7s-.2,10.41-5.58,15.71c-3,2.91-6.81,4.54-7.31,6.36l0-.29a2.09,2.09,0,0,0,0,.34c-.18.79.29,1.26,1.78,1.67,1.19.54,3.07.71,5.94.71h63.6c2.86,0,4.75-.17,5.94-.7,1.49-.41,2-.94,1.77-1.73a1,1,0,0,0,0-.29Z"/><path class="cls-1" d="M241.57,25.89H10.87c-4,0-8.37,3.94-8.37,7.85v149c0,2.31,1.6,3.42,3.52,4.55,1.33,1,3.2.91,4.85.91h230.7c1.67,0,2.54.09,3.76-.95,1.72-1.13,2.17-2.23,2.17-4.51v-149C247.5,29.83,245.61,25.89,241.57,25.89ZM238.31,179H11.69V35.07H238.31Z"/><path class="cls-1" d="M125,49.79A57.26,57.26,0,1,0,182.25,107,57.25,57.25,0,0,0,125,49.79Zm50.3,51.08a4.84,4.84,0,0,1-.59-1.75,1.75,1.75,0,0,0-.18-.53,1.35,1.35,0,0,1,0-1.25,1.09,1.09,0,0,1,.88-.55.75.75,0,0,1,.76.47c.12.24.21.49.31.74a.52.52,0,0,1,0,.21c-.13,0-.21-.1-.3-.14-.3-.14-.46.07-.64.23s-.13.24,0,.48.32.64.45,1,.23.68.35,1l.23-.17c.06.21.12.4.19.61-.14.06-.3,0-.34.17s-.11.33,0,.5a1.26,1.26,0,0,1,.28.91,2.08,2.08,0,0,0,.1.86,2,2,0,0,1,0,.39l-.56.09a.38.38,0,0,1-.42-.29.34.34,0,0,0-.3-.29c-.19,0-.17-.23-.19-.37l-.13-.76a1,1,0,0,0,.13-.22A1.63,1.63,0,0,0,175.3,100.87Zm-50.16,60.46A54.2,54.2,0,0,1,73.46,90.92a2.11,2.11,0,0,1,0,.25c0,.09,0,.18,0,.27a.38.38,0,0,1,.09-.16c.09.15,0,.24-.05.34a.59.59,0,0,1,.13,0s.12,0,.12,0h0c0,.06,0,0,.05.06a.46.46,0,0,1-.21.25h0s0,0,0-.09,0,.06-.06.05l-.06.8s0,0,0,0l.12-.28a.23.23,0,0,1,.14.29,3.82,3.82,0,0,0-.07.68,2.09,2.09,0,0,0,0,.34c0,.39,0,.78.07,1.17a.1.1,0,0,0,0,.07,8.3,8.3,0,0,1,.5.71.9.9,0,0,1,.18.81,1.86,1.86,0,0,1-.1.25l-.22-.11a.47.47,0,0,0-.13.53,2.77,2.77,0,0,1,0,1.18,12.1,12.1,0,0,0-.26,1.58,13.53,13.53,0,0,1-.16,2,.33.33,0,0,0,0,.14,6.1,6.1,0,0,0,.35,1.46.65.65,0,0,1,0,.2l.15,1.07a3.82,3.82,0,0,1,.11.55.74.74,0,0,0,.37.66,1.41,1.41,0,0,1,.57.78c0,.07.06.19,0,.23s0,.3,0,.44a3.73,3.73,0,0,1,.14.44c.06.31.1.62.17.93a3.66,3.66,0,0,0,.21.55c.14.32.29.64.45,1s0,.27-.14.35a.92.92,0,0,0,.09.13,1.85,1.85,0,0,1,.68,1.52.57.57,0,0,0,.08.25c.09.15.2.29.3.43l.3.38.28.45c.12-.36.08-.53-.14-.72a.76.76,0,0,1-.2-.27c-.08-.24-.14-.49-.21-.74l-.27-.86c-.09-.32-.19-.63-.29-.94a2.85,2.85,0,0,0-.29-.74,2.7,2.7,0,0,1-.47-1.48.66.66,0,0,1,0-.23,2.5,2.5,0,0,1,.34.23.47.47,0,0,1,.18.24c.09.32.16.66.23,1a2.34,2.34,0,0,0,.59,1.16.71.71,0,0,1,.08.15,3.72,3.72,0,0,0,.27.48,1,1,0,0,1,.28.7.71.71,0,0,0,.25.55,4.41,4.41,0,0,1,.39.49,7.78,7.78,0,0,1,1,2,1.18,1.18,0,0,1,.06.74.69.69,0,0,0,.16.72l.9,1a.67.67,0,0,0,.18.11,1.18,1.18,0,0,1,.63.53.53.53,0,0,0,.43.27.79.79,0,0,1,.36.17,2.43,2.43,0,0,1,.34.3,1.16,1.16,0,0,0,.69.38.41.41,0,0,1,.24.13c.31.22.31.22.64,0a.35.35,0,0,1,.5,0c.35.34.67.71,1,1a2.1,2.1,0,0,0,.7.5,5,5,0,0,1,1,.39,1.45,1.45,0,0,0,.22.09c.21.07.39.08.53-.13a.63.63,0,0,1,.19-.07,2.72,2.72,0,0,0,.11.34,2,2,0,0,0,.34.6,2.13,2.13,0,0,1,.83,1.63.37.37,0,0,0,.29.39l.13-.18a2.5,2.5,0,0,1,.87.9.57.57,0,0,0,.53.39.7.7,0,0,1,.66.35,2.3,2.3,0,0,0,.46.42.22.22,0,0,0,.31-.06.22.22,0,0,0,0-.29c-.15-.15-.08-.27,0-.38l.24-.2c.12-.08.26-.17.39,0s.38.25.36.48a.32.32,0,0,0,.14.31.51.51,0,0,1,.12.2,1.14,1.14,0,0,0,.16.31,1.16,1.16,0,0,1,.31.86,1.58,1.58,0,0,0,.12.53c.07.18.19.33,0,.52a.18.18,0,0,0,0,.16c.06.1.17.19.08.32a.72.72,0,0,1-.27.25.92.92,0,0,0-.59.68.71.71,0,0,1-.65.62,1.28,1.28,0,0,1-.21,1c-.17.27,0,.57.09.84s.28.25.48.27c0,0,0,0,0,.05,0,.21,0,.22-.25.39a.88.88,0,0,0-.34.9,1.91,1.91,0,0,0,.76,1.14,1,1,0,0,1,.32.4c.07.13.13.31.24.37a1.31,1.31,0,0,1,.5.62c.21.38.38.78.61,1.14.34.53.72,1,1.07,1.56a1.2,1.2,0,0,1,.17.48.92.92,0,0,0,.23.5,5,5,0,0,0,1.33,1c.22.11.41.26.62.39a6.34,6.34,0,0,0,.66.39,2.76,2.76,0,0,1,1,.74,1.57,1.57,0,0,1,.36.59,11.44,11.44,0,0,1,.29,1.29.74.74,0,0,1,0,.39,2.16,2.16,0,0,0,0,1.07c.06.24.09.48.16.72a2.06,2.06,0,0,1,0,1.1,3.07,3.07,0,0,0,.06,1.28c.06.33.23.64.31,1a6.7,6.7,0,0,1,.1.9c0,.06,0,.13-.06.19a3.87,3.87,0,0,0-.31.65.65.65,0,0,0,0,.41,5.29,5.29,0,0,0,.29.52c0,.15-.1.34,0,.45a3.79,3.79,0,0,1,.29.86c0,.11.08.25.26.18,0-.16-.06-.31-.09-.48l.35,0c.13,0,.25.08.26.24v1.27l-.29-.13-.31-.09,0,.06.51.43-.23.25c.45.3.69.8,1.17,1.05.07,0,.18.14.17.19,0,.22.12.27.25.33.46.22.93.42,1.39.62.29.13.6.22.87.37a4.94,4.94,0,0,0,1.92.48,2,2,0,0,0-.44-.21,3.27,3.27,0,0,1-1.14-.66,2.2,2.2,0,0,0-.44-.28,1.51,1.51,0,0,1-.26-.18.2.2,0,0,1,0-.18.22.22,0,0,1,.17-.1,2.72,2.72,0,0,1,.39,0l.1-.25c.18-.08.39,0,.54-.2a1.16,1.16,0,0,0-.18-.2l-.41-.19a2.57,2.57,0,0,1-.44-.29c-.12-.11-.06-.24.11-.27a1.22,1.22,0,0,1,.27,0l.45,0c-.15-.29.19-.49,0-.75.17,0,.32.19.53.08-.06-.18-.19-.18-.33-.18a.71.71,0,0,1-.63-.61c.44,0,.77.43,1.24.27,0-.09,0-.17.07-.26a.33.33,0,0,0,0-.14c0-.42,0-.44.4-.38l.1,0a6.33,6.33,0,0,0,1.57.14,1.1,1.1,0,0,0,.84-.36c.16-.14.17-.4,0-.48a1.73,1.73,0,0,1-.61-.62A1.2,1.2,0,0,0,110,152l-.18-.16,0-.08.33.07c.4.13.8.27,1.2.38a3.24,3.24,0,0,0,.62.12.91.91,0,0,0,.92-.45l.15-.24a1.58,1.58,0,0,1,.67-.66,2.14,2.14,0,0,0,.32-.2.82.82,0,0,0,.4-.63.39.39,0,0,1,.13-.23,1.68,1.68,0,0,1,.73-.47l.26-.11c0-.32,0-.62-.08-.92-.06-.48,0-.57.43-.74a.79.79,0,0,0,.27-.15,1.34,1.34,0,0,1,.94-.42,1.23,1.23,0,0,0,.75-.34.61.61,0,0,1,.34-.14,6.47,6.47,0,0,1,.88,0,1.55,1.55,0,0,0,.89-.24.56.56,0,0,0,.26-.36,1,1,0,0,1,.2-.39,3.17,3.17,0,0,1,.4-.49,1.35,1.35,0,0,0,.38-.95.72.72,0,0,1,.2-.44.69.69,0,0,0,.21-.31,2.71,2.71,0,0,0,0-1.62,2,2,0,0,1,0-.24.62.62,0,0,1,.36-.79,2.66,2.66,0,0,0,.51-.37c.45-.47.89-1,1.34-1.43a2.75,2.75,0,0,0,.79-2.14c0-.72-.38-1.05-1.1-1a1.42,1.42,0,0,1-1-.28,4.6,4.6,0,0,1-.68-.56,1.93,1.93,0,0,0-.94-.56,2.17,2.17,0,0,0-1.1-.11,2,2,0,0,1-.24,0,.93.93,0,0,1-.74-.16l-.24-.14a.65.65,0,0,0-.73,0,.33.33,0,0,1-.4.05,1.79,1.79,0,0,0,0-.34.53.53,0,0,0-.2-.31c-.46-.23-.92-.45-1.4-.64-.79-.33-1-.24-1.51.48-.12.17-.22.35-.31.5l-.76-.14c-.22-.46-.27-.52-.52-.65s-.45-.4-.23-.75a2.5,2.5,0,0,1,.49-.54c.15-.16.32-.29.5-.45-.08-.1-.11-.18-.17-.22a1.18,1.18,0,0,1-.51-.69l-.29-.75a.59.59,0,0,0-.14-.23c-.27-.24-.55-.47-.84-.68-.14-.1-.31-.24-.46-.23a.7.7,0,0,1-.75-.53c0-.1-.11-.18-.15-.28a.42.42,0,0,0-.44-.27q-.64,0-1.29,0a1,1,0,0,1-1-.4s-.07-.09-.1-.08c-.25,0-.34-.16-.47-.31a1,1,0,0,0-.28-.2,1.69,1.69,0,0,1-.34-.23.71.71,0,0,0-.67-.29c-.2,0-.3-.08-.34-.27a.8.8,0,0,0-.65-.61,5.28,5.28,0,0,1-.73-.33c-.08,0-.13-.14-.21-.24.15,0,.24-.08.33-.11v-.08c-.23,0-.45,0-.68,0s-.3,0-.37.07c-.22.24-.49.16-.75.15a.43.43,0,0,1-.43-.25.3.3,0,0,0-.3-.19l-.91,0a.41.41,0,0,1-.4-.23.28.28,0,0,0-.18-.14,1.36,1.36,0,0,1-.87-.55l-.37.17c.14.23.49.29.41.65-.2,0-.4,0-.59,0s-.31,0-.38.11,0,.3,0,.45a1.08,1.08,0,0,1,.11.18.63.63,0,0,1,.08.29.45.45,0,0,1-.16.24s-.17-.07-.22-.13a1.69,1.69,0,0,1,0-1.63c.12-.19.13-.35,0-.49s-.25-.1-.42.09a1,1,0,0,1-.57.32c-.38.1-.76.22-1.15.3a.7.7,0,0,0-.6.71.5.5,0,0,1-.11.36,1.33,1.33,0,0,0-.44.65c-.2,0-.29-.06-.39-.16a5.79,5.79,0,0,0-.51-.48,1,1,0,0,0-1.17-.13,2.62,2.62,0,0,1-.49.19.43.43,0,0,1-.52-.18,2,2,0,0,0-.7-.67.93.93,0,0,1-.45-.61c-.06-.48-.1-1-.14-1.46a.28.28,0,0,1,0-.13,2,2,0,0,0,.11-1.33,6.21,6.21,0,0,1-.51-.37.93.93,0,0,0-.66-.27H88.14a1.84,1.84,0,0,1-.41,0,.31.31,0,0,1-.2-.47.87.87,0,0,0,.14-.73c0-.15,0-.3,0-.45a.55.55,0,0,1,.15-.42c.1-.11.23-.24.24-.37a2.1,2.1,0,0,1,.4-1,.54.54,0,0,0,.09-.54,4.62,4.62,0,0,0-.76-.18,2.42,2.42,0,0,0-.76,0,.68.68,0,0,0-.54.69,4,4,0,0,1-.48,1.3s0,0-.06,0c-.46-.18-.46-.18-1,0-.31.12-.34.11-.58-.12,0-.06-.13-.1-.19-.16a2.43,2.43,0,0,1-.34-.38c-.21-.31-.4-.64-.6-1a.89.89,0,0,1-.2-.75c0-.09,0-.19,0-.28,0-.66-.09-1.33-.09-2a3,3,0,0,0-.1-1.07,1.71,1.71,0,0,1,.16-1.38.5.5,0,0,1,.5-.33.34.34,0,0,0,.33-.21c.09-.14.17-.28.27-.41a.57.57,0,0,1,.89-.16c.12.06.22.1.32,0s.27-.09.4,0,.9.25,1.06.35-.46.17,1.1.07V109s-.19-.06,0-.07-.12,0-.07.05.06.08.17,0,.39-.1.61.06.21.21.34.31.28.14.47,0a.39.39,0,0,1,.64,0,1.15,1.15,0,0,1,.21.43c.09.39.15.78.22,1.17a1.94,1.94,0,0,0,.37.9,3.44,3.44,0,0,1,.57,1,.32.32,0,0,0,.6,0,1,1,0,0,0,.14-.36,1.74,1.74,0,0,0-.06-1A1.69,1.69,0,0,1,92,111a2.39,2.39,0,0,0-.4-1.21,1.75,1.75,0,0,1-.25-.68,2.4,2.4,0,0,1,.88-2.19,10.53,10.53,0,0,1,.94-.66c.17-.12.37-.2.44-.43,0-.07.1-.12.17-.16l.67-.38a3.85,3.85,0,0,0,.35-.26c-.42-.25,0-.41,0-.61l-.32-.19a3.52,3.52,0,0,0,.09-.42,1.74,1.74,0,0,1,.27-.66c.12-.17.21-.37.32-.55a.65.65,0,0,0,0-.75.65.65,0,0,1,0-.17l.29.1A3,3,0,0,0,96,101a.35.35,0,0,0,0-.42c-.12-.2,0-.28.18-.32s.5-.12.74-.18.11-.17.13-.23l.79-.35a1,1,0,0,1,.3,0,.58.58,0,0,0,.49-.11c-.21,0-.23,0-.28-.12a1.33,1.33,0,0,1,.33-1.48c.18-.19.39-.33.58-.51a.71.71,0,0,1,.65-.23.85.85,0,0,0,.88-.45.61.61,0,0,1,0-.63c.21,0,.42,0,.64.1a.62.62,0,0,0,.73-.26,1.88,1.88,0,0,1,.32-.25c0,.19.06.32.09.46a1.52,1.52,0,0,0-.34.15,3.51,3.51,0,0,0-.59.42.63.63,0,0,0,0,1c.15.14.22.15.39,0a.47.47,0,0,0,.13-.11,2.91,2.91,0,0,1,1.25-.82c.22-.08.43-.19.64-.29a5,5,0,0,0,.64-.36c.21-.13.18-.3-.05-.37a2.88,2.88,0,0,0-.59-.07,2.24,2.24,0,0,1-1.49-.69.67.67,0,0,1-.13-.92,2.64,2.64,0,0,0,.1-.27l-.5-.12c.16-.1.27-.15.36-.2a4.15,4.15,0,0,0,.41-.27.4.4,0,0,0,.17-.49c-.06-.19-.24-.22-.4-.22s-.42,0-.63,0a2.42,2.42,0,0,0-1.33.41c-.22.14-.45.29-.68.42a2.35,2.35,0,0,1-.34.14.68.68,0,0,1,.36-.44c.12-.07.25-.13.38-.19a1.46,1.46,0,0,0,.79-.81.53.53,0,0,1,.36-.35,4.23,4.23,0,0,1,.92-.21c.73,0,1.47,0,2.21,0h.73a1.31,1.31,0,0,0,1-.5,2.05,2.05,0,0,1,.93-.6c.31-.11.61-.22.92-.35a2,2,0,0,0,.5-.3.68.68,0,0,0,.24-.37,1.46,1.46,0,0,0-.18-1.08.9.9,0,0,1-.15-.65s0-.09,0-.16l-.35.1-1.15.44c-.21.08-.43.17-.65.24a.49.49,0,0,1-.47,0,6.36,6.36,0,0,1,.59-.28c.31-.12.63-.24.94-.38a.51.51,0,0,0,.36-.4.62.62,0,0,0-.5-.21,3.61,3.61,0,0,1-.73-.07c-.48-.11-.88-.33-.92-.92a2.15,2.15,0,0,1-1-.49c.39-.39.38-.39.26-.92a.48.48,0,0,0-.26-.34,1.44,1.44,0,0,1-.39-.35.49.49,0,0,1-.09-.38c.13-.32,0-.5-.25-.68a1.21,1.21,0,0,1-.38-.4,1.05,1.05,0,0,0-.46-.45,1.14,1.14,0,0,0-.59.63,2.12,2.12,0,0,1-1.18,1.27c-.28.14-.4.1-.62-.13s-.16-.19-.26-.21a.49.49,0,0,1-.38-.45c0-.32-.09-.65-.12-1s-.1-.41-.42-.46a1.2,1.2,0,0,0-.2,0c-.42-.06-.47-.1-.63-.51a1.13,1.13,0,0,1-.61-.42.57.57,0,0,0-.87-.09,1,1,0,0,1-.64.15,6.17,6.17,0,0,0-.62-.11,3.47,3.47,0,0,0-.72,0,.63.63,0,0,0-.49.36.38.38,0,0,0,0,.43c.23.33.21.39-.08.68s-.2.25-.07.48c0,.07.09.14.14.21a.66.66,0,0,1-.06.84,2.42,2.42,0,0,1-.42.36A3.06,3.06,0,0,1,94,84l.31.49c.12.18.26.36.37.55a2.33,2.33,0,0,1,.24,1.4,1.32,1.32,0,0,1-.54.79c-.38.36-.79.69-1.21,1.05a1.46,1.46,0,0,1,.35,1.17c0,.22,0,.44,0,.66s0,.18,0,.23a3.9,3.9,0,0,1-.73.79c-.13.09-.23.1-.34,0s-.36-.34-.52-.52a1.49,1.49,0,0,1-.43-1.35,2.56,2.56,0,0,0,0-.55,1.46,1.46,0,0,0,0-.42.43.43,0,0,0-.52-.35,4.34,4.34,0,0,0-.63.08,1.3,1.3,0,0,1-1-.18c-.64-.36-1.29-.7-1.94-1.06a.51.51,0,0,0-.67.07,4,4,0,0,1-.35.26c0-.19,0-.31,0-.42a5.7,5.7,0,0,0-.1-.83c-.09-.37-.22-.41-.54-.22a.46.46,0,0,1-.14,0,4.33,4.33,0,0,1,.8-2.51,8.93,8.93,0,0,0,.6-.91,1.13,1.13,0,0,1,.76-.62.68.68,0,0,0,.37-.24c.15-.19.08-.34-.16-.39l-.44-.06a.3.3,0,0,1,.25-.1l.56,0a.26.26,0,0,0,.32-.2c0-.21.2-.25.38-.3a.76.76,0,0,0,.42-.21,7.32,7.32,0,0,0,.52-1s0-.09,0-.15c-.37-.11-.8-.16-.83-.69.16-.09.27-.1.4.06.29.34.47.36.85.13a1.44,1.44,0,0,0,.25-.18c.24-.18.48-.37.29-.72.23-.06.26-.08.37,0a.48.48,0,0,0,.69,0l.47-.34a.25.25,0,0,0,.37,0c.3-.27.61-.54.89-.84s.15-.25,0-.43a.43.43,0,0,1-.06-.64,1.51,1.51,0,0,1,.23-.21.44.44,0,0,0,.22-.49c-.2-.09-.35-.17-.51-.23a.79.79,0,0,0-.3-.08,4.42,4.42,0,0,0-.63,0,.71.71,0,0,0-.56.37c-.12.18,0,.33.09.48s0,0,0,.08a.41.41,0,0,1-.11.12,1.52,1.52,0,0,0-.74.89A2.7,2.7,0,0,1,91,77a.3.3,0,0,1-.35.09.47.47,0,0,1-.16-.73,1.42,1.42,0,0,0,.13-.12c.19-.2.17-.34-.07-.56a.31.31,0,0,0-.53,0c-.08.11-.13.25-.2.37s-.15.31-.34.37c0-.38,0-.38-.21-.58l.08-.21c-.2-.11-.41.12-.62,0l.3-.27c.27-.27.25-.38-.08-.57,0,0,0,0,0-.07a1.3,1.3,0,0,0,0-.34.51.51,0,0,0-.17-.28.63.63,0,0,0-.79.28.57.57,0,0,1-.25.28c-.11.08-.27.21-.28.32a1,1,0,0,1-.28.69.28.28,0,0,0,0,.26.46.46,0,0,0,.27.09c.16,0,.32,0,.46,0,.13.28-.11.45-.11.67l.25,0a.78.78,0,0,1-.4.51,1.71,1.71,0,0,0-.73.82c0,.1-.1.14-.24.11,0-.11.07-.21.09-.31s0-.19.08-.28c-.47-.11-.86,0-1,.35a.79.79,0,0,1-.61.5c-.15,0-.28.12-.42.17a8.94,8.94,0,0,1-1,.27c-.41.08-.59,0-.76-.42-.64.29-1,.61-1,.94l.25-.06h0l.38-.35.05.06a.63.63,0,0,1-.43.29h0a4.6,4.6,0,0,0-.25.44c-.06.14,0,.34-.15.48L81.74,80c-.17-.34-.2-.36-.54-.17s-.59.38-.88.56l-.4.25c0-.1,0-.18,0-.22a1.81,1.81,0,0,1,.21-.18c.18-.16.18-.2,0-.45l-.45.32c-.15.1-.3.23-.48.16-.34-.12-.53.07-.72.29-.06.07-.13.2-.18.19s-.22.12-.3.23l-.15.19-.13-.1-.21.24c.65-1.19,1.34-2.36,2.08-3.5a.3.3,0,0,1,0,.08l-.81,1.33a.15.15,0,0,0,0,.06l.24.25c.31-.43.6-.85.9-1.26a4.73,4.73,0,0,1,.32-.46s.12,0,.18-.08h0c-.11-.14,0-.2.13-.28,0,.09-.08.19-.13.28h0a1.32,1.32,0,0,0-.33,1A4.58,4.58,0,0,1,81.26,78c-.08.23-.25.3-.38.4-.29.25-.57.51-.85.77a.39.39,0,0,0-.14.2.74.74,0,0,0,0,.25.79.79,0,0,0,.22-.06c.14-.1.27-.21.34-.27s.27,0,.33,0a6.83,6.83,0,0,0,2-1.29c.13-.18.27-.17.5-.07a.52.52,0,0,0,.33.08,5.56,5.56,0,0,0,.78-.37.35.35,0,0,0,.19-.24c0-.09-.09-.19-.17-.33l.38-.21c.14-.07.3-.12.38-.33l-.34-.07-.41-.1a.26.26,0,0,1-.17-.31c0-.24,0-.48.07-.72a1.1,1.1,0,0,1,.33-.75.66.66,0,0,0,.26-.55,1,1,0,0,0-.74.5.59.59,0,0,1-.31.31.65.65,0,0,0-.41.52c0,.2-.08.39-.12.59a.31.31,0,0,1-.24.3c-.05-.21.19-.43,0-.64a.61.61,0,0,0-.36.29,1.44,1.44,0,0,1-.28.33l-.17-.19a1.18,1.18,0,0,0-.25.15,2.05,2.05,0,0,0-.23.2l-.07-.16-.15.07,0-.28a.55.55,0,0,0-.13,0c-.31.2-.62.38-.92.6a2.34,2.34,0,0,0-.32.31c.35-.52.71-1,1.07-1.54a.9.9,0,0,0,.37-.17c.15-.13.13.09.19.06l.32-.2c.08-.06.15-.16.26-.12s0-.24,0-.24h.76a1.25,1.25,0,0,1-.21,0c0,.07-.19.14-.19.21s0,0,0,0,.27-.27.44-.41a8.17,8.17,0,0,1,1.11-.85,3,3,0,0,0,1.08-1.06,1.49,1.49,0,0,0,.07-.25c-.32,0-.39.43-.73.34,0-.12,0-.23,0-.36a2.11,2.11,0,0,0-.64.58.19.19,0,0,0,0,.15.59.59,0,0,1-.6.64,3.55,3.55,0,0,0-.47.08c0-.07.08-.17.13-.27l-.06,0a2.48,2.48,0,0,1-.19.26,1.52,1.52,0,0,1-.22.22l0,0c.07-.15.15-.29.25-.48a5.11,5.11,0,0,0-.55.48,54.16,54.16,0,0,1,89.78,6.41.42.42,0,0,0-.53,0c-.13.07-.26.16-.39.24a.44.44,0,0,1-.73-.21,1.49,1.49,0,0,1-.09-.3c-.1-.27-.2-.54-.32-.81,0-.06-.1-.1-.15-.15l-.08,0a1.75,1.75,0,0,0,.17,1.12.69.69,0,0,1,.2.58c-.35,0-.57-.34-.93-.26,0,.14-.06.28-.08.41-.09.44-.26.53-.66.31a7,7,0,0,1-.6-.37c0,.23.08.42.13.68-.77-.5-.92-1.3-1.33-2a4.3,4.3,0,0,1,1.32.55,2.24,2.24,0,0,0,.4.22c.21.09.44.16.62,0s.09-.43,0-.61a4.54,4.54,0,0,0-.73-.84c-1-.84-2.09-1.65-3.16-2.45a5.4,5.4,0,0,0-.93-.47,1.42,1.42,0,0,1-.76-.55,1.15,1.15,0,0,0,.27,0,.13.13,0,0,0,.09-.21,2.51,2.51,0,0,0-.55-.42c-.07,0-.2,0-.31,0l-.19-.34-.41.2-.19-.23c-.2,0-.24.36-.52.25a.39.39,0,0,1,.06-.13c.07-.1.18-.21.07-.31s-.21-.05-.32-.07h-.07a.65.65,0,0,1-.72-.23.63.63,0,0,0-.12-.1l-.25.14a.47.47,0,0,0-.05.1l.3.18c-.35.18-.2-.12-.48,0s-.48-.1-.48.09v.17c-1.56,0-.92-.17-1.07.12.07.06-.1.11,0,.18-.06.12-.24.23-.3.36-.34-.15-.72-.26-.82-.6a2.3,2.3,0,0,0-.4,0c-.06,0-.16,0-.18.09s0,.12,0,.18l.07.08-.16.24,1-.14a1.22,1.22,0,0,1-.84,1,1,1,0,0,0-.76.76c-.07.27-.13.54-.2.81a.54.54,0,0,1-.12.24c-.49.42-.82,1-1.54,1.16l.08.14-.46.24a4.59,4.59,0,0,1-.5.24,1.35,1.35,0,0,0-.6.4,1.76,1.76,0,0,1-.4.37.35.35,0,0,0-.16.33,3.44,3.44,0,0,0,.41,1.4,1.82,1.82,0,0,1,.1.19c-.07.17-.14.32-.21.48.62,0,.62,0,.6.33l-.12.05c-.26.13-.28.25-.06.44a5.22,5.22,0,0,0,.45.33,1,1,0,0,0,1.38,0,6.47,6.47,0,0,0,.73-.75,2.51,2.51,0,0,0,.19-.24l.38.45a.24.24,0,0,1,0,.16.92.92,0,0,0,.24.74,4,4,0,0,1,.35.64,4.08,4.08,0,0,0,.26.64,1.56,1.56,0,0,1,.27.86,1.34,1.34,0,0,0-.26-.09.28.28,0,0,0-.2,0,.62.62,0,0,0-.12.85c.09.08.2.15.32.24-.06.06-.1.13-.16.16a.75.75,0,0,1-.23,0c.29.3.5.26.6-.08,0-.08,0-.18.06-.27s.11-.21.18-.35a.83.83,0,0,1,.12.15c.21.33.44.39.68.08a.73.73,0,0,1,.82-.28h.09c.16-.24.3-.43.42-.63a.84.84,0,0,0,.13-.29.25.25,0,0,0-.05-.19c-.34-.25-.31-.6-.28-1a.54.54,0,0,1,.47-.56.68.68,0,0,0,.35-1.16,5.1,5.1,0,0,0-.62-.51,1.39,1.39,0,0,1-.19-.15c-.08-.11-.14-.23-.21-.34s-.12-.36,0-.44.14-.25.11-.41c-.1-.42,0-.56.38-.73l.77-.34c.62-.29.69-.42.55-1.08-.09-.42.08-.64.5-.63a2,2,0,0,1,1.12.36,1.15,1.15,0,0,1,.27.27c.19.28.13.48-.18.57a1,1,0,0,0-.6.49c-.22.36-.45.7-.93.69a1.89,1.89,0,0,0,.46,1.24.7.7,0,0,0,.15.93.93.93,0,0,0,.18.16c.2.15.46.21.62.44s.25.12.38.12a1.36,1.36,0,0,0,.49,0,1.59,1.59,0,0,1,.72,0,1,1,0,0,0,.9-.15,1.53,1.53,0,0,1,.47.75,1.08,1.08,0,0,1-1.17.1,1.27,1.27,0,0,0-.32-.13,1.18,1.18,0,0,0-.92.07c-.26.14-.28.27-.1.5a4.7,4.7,0,0,1,.38.5,2.15,2.15,0,0,1,.23.51.24.24,0,0,1-.13.32.39.39,0,0,1-.31-.07,2.82,2.82,0,0,1-.33-.36c-.24-.27-.42-.25-.6.06a.82.82,0,0,0-.1.26c-.05.31-.09.62-.11.93a1,1,0,0,1-.13.61,1.54,1.54,0,0,0-.39.81l-.52,0c-.09-.13-.14-.27-.22-.3a.88.88,0,0,0-1,.07,1.17,1.17,0,0,1-.68.24,1.25,1.25,0,0,0-.5.14c-.25.13-.24.13-.45,0s-.19-.27-.12-.51l-.58.15-.52.2c-.17.05-.32.05-.42-.15a.31.31,0,0,0-.17-.15.84.84,0,0,1-.51-.41.87.87,0,0,1,0-1.1l.19-.2a.21.21,0,0,0-.06-.33c-.36-.21-.36-.21-.3-.62a3.52,3.52,0,0,0,0-.47c-.26.13-.46.22-.65.33a.9.9,0,0,0-.47,1.18c0,.12.11.23.16.35.19.41.39.82.56,1.24a.38.38,0,0,1-.46.52c-.07,0-.14-.05-.2,0a.42.42,0,0,0-.26.06c-.11.16-.24.15-.4.12a1,1,0,0,0-.81.25,3.22,3.22,0,0,1-.32.32.56.56,0,0,0-.23.61c.06.35,0,.46-.34.59s-.79.29-1.19.44c0,.13-.08.28-.13.42a.79.79,0,0,1-.67.59.54.54,0,0,0-.25.15.39.39,0,0,1-.51.07,1.37,1.37,0,0,1-.24-.18c-.2-.17-.68-.19-.68-.13v1c0,.17-.57.09-.82-.05-.08,0-.19-.11-.26-.09a3.58,3.58,0,0,0-.63.21.19.19,0,0,0-.09.31,1.18,1.18,0,0,0,.41.36,7.22,7.22,0,0,0,.92.34.61.61,0,0,1,.51.54.71.71,0,0,0,.43.56.48.48,0,0,1,.33.57.88.88,0,0,0,0,.28,3,3,0,0,1-.24,1.67.21.21,0,0,1-.07.11,3.23,3.23,0,0,1-.57.26,7,7,0,0,1-1.71,0,.42.42,0,0,1-.44-.33l-.12-.37c-.42,0-.83,0-1.23-.06a.81.81,0,0,0-.57.13l-.35.23c-.38.29-.39.33-.21.76a1.89,1.89,0,0,1,.16,1c-.07.56-.13,1.12-.19,1.67,0,.06-.16.12-.19.17-.2.56.27.64.27.91v1.17c1.56,0,.34,0,.41,0l.62-.12a.66.66,0,0,1,.87.37s.07.1.1.16c.25.47.41.52.89.28l.16-.08a2.61,2.61,0,0,1,1.52-.35.57.57,0,0,0,.53-.25,1.49,1.49,0,0,1,.41-.42,2.19,2.19,0,0,0,.85-1,.57.57,0,0,1-.13-.77,6.8,6.8,0,0,1,.51-.91,1.05,1.05,0,0,1,.65-.43,2.47,2.47,0,0,0,.7-.32.52.52,0,0,0,.22-.64,1.66,1.66,0,0,1-.06-.21.56.56,0,0,1,.39-.71,1.11,1.11,0,0,1,.72,0L154,98a.75.75,0,0,0,.67-.1,9.48,9.48,0,0,0,.95-.72.56.56,0,0,1,.57-.15.94.94,0,0,1,.6.45c.16.27.3.55.45.83a1.54,1.54,0,0,0,.57.69,1.41,1.41,0,0,1,.35.34,2.29,2.29,0,0,0,.81.6,3.13,3.13,0,0,1,.68.46,4.32,4.32,0,0,1,.47.57,1.18,1.18,0,0,1,.27,1.08,2.67,2.67,0,0,1-.25.43c.27.14.36.11.44-.19s.15-.46.47-.53c-.07-.13-.11-.23-.17-.33s-.1-.12-.15-.19a.35.35,0,0,1,0-.45.4.4,0,0,1,.47-.13,1.73,1.73,0,0,1,.32.2l.22.12a.62.62,0,0,0-.27-.58,6,6,0,0,0-.68-.43c-.27-.14-.53-.26-.45-.66H160a.66.66,0,0,1-.71-.46c-.08-.2-.15-.41-.23-.62a1.21,1.21,0,0,0-.62-.73.67.67,0,0,1-.39-.78,1.24,1.24,0,0,0,0-.27c-.05-.26-.05-.3.17-.42l.43-.2.07.23c.08.28.11.3.41.33l.42,0c0,.11,0,.2.07.29a3.92,3.92,0,0,0,.54,1.32.75.75,0,0,0,.61.43s.11.06.17.09a1.49,1.49,0,0,0,.31.2,1.27,1.27,0,0,1,.89,1.25,1.52,1.52,0,0,0,.52,1.25,2.09,2.09,0,0,1,.61.88c.07.22.15.41.41.43a1,1,0,0,0,.14,1.08.49.49,0,0,0,.54.18,5.48,5.48,0,0,0-.06-.61,6.68,6.68,0,0,0-.25-.62c.38.2.7.4,1,.07l-.17-.19c-.14-.16-.29-.3-.43-.46s-.11-.16-.09-.21c.09-.25-.08-.4-.18-.58s-.11-.11-.11-.17a.41.41,0,0,1,.08-.24s.14,0,.2.06.19.18.29.27l.07,0c0-.11,0-.22,0-.33a.36.36,0,0,1,.05-.19.53.53,0,0,1,.85,0l.13.12c.27.26.38.26.62,0a.5.5,0,0,1,.45-.22,1.91,1.91,0,0,0,.42-.06l-.25-.32c-.1-.13-.2-.26-.29-.4a.64.64,0,0,1,0-.7,1.88,1.88,0,0,1,.14-.24,1,1,0,0,0,.17-.73.94.94,0,0,1,.33-1s0-.13,0-.19a.64.64,0,0,1,.08-.19c.1-.14.21-.27.31-.42s.32-.27.51,0,.37.54.55.81.29.46.45.68.17.16.24.14a1.51,1.51,0,0,0,.93-.55A4.7,4.7,0,0,1,170,97c-.27-.13-.28-.36,0-.53a4.7,4.7,0,0,1,1-.51,1.59,1.59,0,0,0,0,.44c.12.39,0,.64-.33.77,0,0,0,0-.08.07a1.9,1.9,0,0,0,.67.93c.24.22.5.41.75.62a2,2,0,0,1,.68,1.24.6.6,0,0,1-.57.68,3.56,3.56,0,0,1-.8-.08,2.07,2.07,0,0,1-.61-.31c-.21-.15-.38-.34-.59-.49a.73.73,0,0,0-.35-.12,1.19,1.19,0,0,0-1,.41.69.69,0,0,1-.74.28,2.32,2.32,0,0,0-.38-.06h-.24l.08.33-.43.07a4.22,4.22,0,0,0-.62.1.8.8,0,0,0-.35.22c-.14.15-.1.29.09.41s.1.07.11.12a.56.56,0,0,1-.12.58l-.19.21a1.79,1.79,0,0,1,.34.2c.09.08.22.19.23.29a1,1,0,0,0,.27.55c.09.12.17.26.26.4.27,0,.27,0,.52.21s.41.3.62-.07l0-.06c.14-.22.29-.25.49-.08a3.57,3.57,0,0,1,.27.28.52.52,0,0,0,.82,0,2.56,2.56,0,0,0,.23-.27l.44.12c0,.28.07.55.12.81a1.56,1.56,0,0,1-.15,1.08,2.39,2.39,0,0,0-.19.53l-.33,1.35a.39.39,0,0,1-.5.34,1.4,1.4,0,0,1-.38-.16.78.78,0,0,0-.71-.06l-.28.13a1.32,1.32,0,0,1-1.06.11c-.43-.13-.86-.29-1.28-.46a1.73,1.73,0,0,0-.74-.19.46.46,0,0,1-.45-.22l-.31-.48a1.33,1.33,0,0,0-.92.12.73.73,0,0,0-.49.7c0,.15,0,.31,0,.46a.56.56,0,0,1-.72.58,1.91,1.91,0,0,1-.85-.4,8.42,8.42,0,0,1-.7-.64,2.3,2.3,0,0,0-2-.87.77.77,0,0,1-.63-.26,1.26,1.26,0,0,1-.32-1.52.66.66,0,0,0-.05-.82c-.17-.2-.14-.29,0-.53.06-.08.11-.18.19-.31-.44.09-.44.09-.7-.21a.45.45,0,0,0-.68,0,.76.76,0,0,1-.91.12.7.7,0,0,0-.67,0l-.31.17a.47.47,0,0,1-.5,0,1.67,1.67,0,0,0-1.26-.13,11.89,11.89,0,0,0-3.06,1.09.92.92,0,0,0-.25.19,1,1,0,0,1-.83.29l-.49,0a3.05,3.05,0,0,1-1.47-.6,1.66,1.66,0,0,0-.25.3,2.26,2.26,0,0,1-.7.86l-.15.15c-.51.67-1,1.32-1.54,2a1.78,1.78,0,0,0-.24.68,2.33,2.33,0,0,0,0,.53,2,2,0,0,1-.74,1.56,3.06,3.06,0,0,1-1.26.66,1.34,1.34,0,0,0-.86.55,16.1,16.1,0,0,0-1.68,3.11,1.9,1.9,0,0,1-.37.63,1.45,1.45,0,0,0-.38,1.45c.05.24.1.48.16.72s.12.47.17.71a3.14,3.14,0,0,1-.16,2,3.25,3.25,0,0,1-.9,1.35,1.94,1.94,0,0,1,.43,1.11c0,.15,0,.3.06.45a.69.69,0,0,0,.11.28,2.8,2.8,0,0,0,.39.45c.4.37.83.72,1.23,1.09a5,5,0,0,1,.64.74,3,3,0,0,1,.32.58A3.36,3.36,0,0,0,142,127.4c.51.36,1,.7,1.56,1.06a1.38,1.38,0,0,0,1,.26,4.79,4.79,0,0,0,.75-.17c.26-.08.5-.19.76-.29a2,2,0,0,1,1.4,0l.41.11a.79.79,0,0,0,.78-.16,1.76,1.76,0,0,1,.44-.29c.44-.2.87-.4,1.33-.56s.91-.26,1.38-.38a.88.88,0,0,1,1,.46c.12.19.24.38.37.56a.56.56,0,0,0,.54.26,3,3,0,0,1,.42,0,5.35,5.35,0,0,1,.8,0,.93.93,0,0,1,.81.54.48.48,0,0,1,0,.29c-.05.24-.15.46-.19.7a2.13,2.13,0,0,1-.41,1.05,1.18,1.18,0,0,0,0,1.5,4.78,4.78,0,0,0,.39.5c.18.19.37.39.57.57a1.23,1.23,0,0,1,.37.91c0,.3.07.6.11.9s.1.79.14,1.18a4,4,0,0,0,0,.49,1.84,1.84,0,0,1-.46,1.69c-.25.3-.5.59-.74.89a2.92,2.92,0,0,0-.56,1.27,3.25,3.25,0,0,0,.6,2.42.78.78,0,0,1,.09.75,3.5,3.5,0,0,0,.53,3.13c.22.35.31.5-.08.87a.11.11,0,0,0,0,.06c0,.19,0,.35,0,.49a.87.87,0,0,0,.95-.12l.93-.55a1.46,1.46,0,0,1,.77-.29.64.64,0,0,0,.32-.13c.23-.14.44-.31.67-.43a4.21,4.21,0,0,0,1.05-.76c.82-.89,1.63-1.8,2.44-2.7a1.18,1.18,0,0,0,.18-.21c.11-.2.34-.35.23-.63a.21.21,0,0,1,.07-.15,7,7,0,0,1,.93-.88,1.46,1.46,0,0,0,.57-.64,3.71,3.71,0,0,0,.22-.55.85.85,0,0,0,0-.47.72.72,0,0,1,.19-.74,4,4,0,0,0,.4-.43,5,5,0,0,1,1.14-1.23,4.89,4.89,0,0,0,1.12-1.15,1.86,1.86,0,0,0,.32-.72,8.65,8.65,0,0,1,.57-1.83.7.7,0,0,0,0-.6,1,1,0,0,1-.06-.69c.05-.26.09-.53.13-.79a2.76,2.76,0,0,1,.49-1.33,1.91,1.91,0,0,0,.3-.52,7.78,7.78,0,0,1,1.59-2.49,9,9,0,0,0,1.51-2c.44-.88.87-1.76,1.27-2.66a9.81,9.81,0,0,0,.7-2.19.55.55,0,0,0,0-.45c-.31.23-.58.46-.88.66a1.22,1.22,0,0,1-.5.24.62.62,0,0,0-.45.28,2.13,2.13,0,0,1-.26.26,1.72,1.72,0,0,1-.3-1.39.73.73,0,0,1-.44-.61,1,1,0,0,0-.44-.69.85.85,0,0,1-.36-.69c0-.19,0-.37,0-.56a1.06,1.06,0,0,0-.39-.86.68.68,0,0,1-.27-.65c0-.3,0-.61.06-.91a.54.54,0,0,0-.06-.29,1.71,1.71,0,0,1-.34-1.16,3.56,3.56,0,0,0-.23-1.3l-.18-.53c-.25-.77-.51-1.53-.76-2.29a.39.39,0,0,1,0-.39c.21.43.24.93.61,1.3l.19-.32.61,1.43a2.2,2.2,0,0,1,.26,1c0,.09.07.24.13.25.27.07.32.28.39.49a3.6,3.6,0,0,1,.17,1.42.85.85,0,0,0,.49.92,3.3,3.3,0,0,0,.49,1.57,1,1,0,0,1,.12.8,1.41,1.41,0,0,0-.07.45c0,.4.12.8.15,1.21,0,.22.12.31.34.37.18-.23.36-.48.56-.72a.4.4,0,0,1,.22-.15.85.85,0,0,0,.54-.36,3,3,0,0,1,.86-.76,1.18,1.18,0,0,0,.25-.19.4.4,0,0,0,.14-.23,1,1,0,0,1,.49-.73,1.16,1.16,0,0,0,.53-.66c.06-.17.22-.3.28-.47a3.84,3.84,0,0,0,.37-1.08.19.19,0,0,1,.05-.13,3.43,3.43,0,0,0,.44-1c.16-.36-.12-.66-.16-1,0,0,0,0-.07-.07a.73.73,0,0,1-.35-.75c0-.18,0-.37,0-.56a3.15,3.15,0,0,0-.33.59,3.17,3.17,0,0,1-.37.58.42.42,0,0,1-.51.12c-.17-.08-.22-.22-.19-.48s.06-.44.09-.65a.16.16,0,0,0-.13.07l-.09.09a1.4,1.4,0,0,0-.15-.41,3.26,3.26,0,0,1-.49-1.77,2.61,2.61,0,0,1,.06-.62c.06-.26.21-.29.39-.09a.59.59,0,0,1,.12.2c.1.3.18.61.27.91,0,.1,0,.28.12.3a.66.66,0,0,1,.39.5.28.28,0,0,0,.32.2.64.64,0,0,0,.56-.35l.18.88.83.09a1.46,1.46,0,0,0,.65-.06,53.91,53.91,0,0,1-9.33,26.5c.22-.39.44-.77.68-1.15.42-.67.63-1.44,1.06-2.1a3.76,3.76,0,0,0,.33-1.17c0-.06,0-.13,0-.2l-.08,0c-.05.09-.1.17-.14.26a3.78,3.78,0,0,1-.17.35,9.64,9.64,0,0,1-1.54,1.9,1.84,1.84,0,0,0-.63,1.14,2.09,2.09,0,0,1-.39,1c-.12.18-.26.36-.38.55a3.55,3.55,0,0,0-.28.55c-.07.18-.12.37-.18.56s-.15.34,0,.52a.86.86,0,0,0,.27-.08A54,54,0,0,1,125.14,161.33ZM91.9,97.19a2.61,2.61,0,0,1-.4-.3,5.16,5.16,0,0,1-.61,1.55,2.31,2.31,0,0,1-.2-.36,3.33,3.33,0,0,1-.08-.39l-.38.14c0-.14.06-.23.09-.32.24-.69.2-.82-.45-1.16l-.14-.08c.07-.54.06-.56-.45-.69a.68.68,0,0,0-.79.18c-.14.18-.23.15-.45,0a.67.67,0,0,0-.24-.09c0-.18.09-.37.15-.61a1.87,1.87,0,0,0-.3.16l-.87.64a.61.61,0,0,1-.54.06c-.15.09-.21.36-.51.24a1.89,1.89,0,0,1,.74-1c.33-.22.68-.41,1-.6a.66.66,0,0,0,.38-.39c.11-.33.17-.34.48-.19l.13.07c0-.18.07-.35.1-.51s.2,0,.27.09a7.56,7.56,0,0,1,.65.82,1,1,0,0,1,.1.53c0,.54.09.69.59.9a2.6,2.6,0,0,1,1,.55s.15,0,.23.06a2.48,2.48,0,0,0,.27,0,.58.58,0,0,1,.6.56C92.27,97.18,92.11,97.3,91.9,97.19Zm.23,2c-.21.12-.39.24-.58.34a4.67,4.67,0,0,1-.65.27c-.33.11-.41,0-.48-.32a.72.72,0,0,0,.32,0c.08,0,.15-.13.22-.21A1,1,0,0,1,92.13,99.18Zm-3.29-1.57a9.14,9.14,0,0,1,0,1,3.33,3.33,0,0,1-.25.87c-.11.27-.26.33-.45.28a.45.45,0,0,1-.33-.51,6.85,6.85,0,0,1,.13-1c.08-.42.21-.83.34-1.31l-.29.26c0-.56.76-1,1.51-1,0,.34-.07.62-.46.7-.07,0-.14.16-.15.25A1.88,1.88,0,0,0,88.84,97.61Zm3.57.65a4.84,4.84,0,0,1,2.28-.71.54.54,0,0,1-.32.49,2,2,0,0,1-.49.17,2.87,2.87,0,0,1-.41.05ZM82.07,74.58c0,.28,0,.31-.3.39A.53.53,0,0,1,82.07,74.58Zm.15-.07.19-.27.06.05-.2.25Z"/><path class="cls-1" d="M133.26,70.85a.4.4,0,0,0-.26-.14c-.25,0-.49,0-.74-.08-.41-.07-.82-.14-1.23-.23a.42.42,0,0,1-.36-.29c.15-.12.39,0,.49-.28l-.24-.42a1.07,1.07,0,0,1,1.09.29l.21.24a1.4,1.4,0,0,0,1.23.47c.33,0,.41-.13.32-.46a1.43,1.43,0,0,0-.65-.84c-.31-.21-.64-.39-1-.57l-.76-.44c-.13-.08-.22-.18-.11-.34a.37.37,0,0,1,.4.15,2.25,2.25,0,0,0,1.11.7c.25.06.39,0,.46-.13a.45.45,0,0,0,0-.53l-.19-.21a3.94,3.94,0,0,1,.48-.19c.16,0,.32-.07.48-.11a.42.42,0,0,0,.32-.28l-.2-.3c.35-.11.73-.07,1-.46l-.45-.11a1.07,1.07,0,0,1-.33-.11.34.34,0,0,1-.13-.22s.11-.12.18-.13a3.49,3.49,0,0,1,.44,0c.05-.41.05-.41-.17-.69,0,0-.09-.09-.1-.15-.06-.22-.22-.26-.43-.28a.73.73,0,0,1-.32-.12.16.16,0,0,1,0-.3.93.93,0,0,1,.37-.06c.31,0,.61.06.91.07s.52.09.57-.19-.25-.3-.45-.38l-.4-.15s0-.05,0-.08l.24-.11a2.29,2.29,0,0,0-1.49-.36.67.67,0,0,1,.53-.75,1.25,1.25,0,0,0,.46-.23c.09-.09.1-.27.15-.41s.25-.05.38-.06c.28,0,.51-.08.56-.38.32-.1.73.08.86-.37l1.72-.38c.12,0,.25,0,.29-.19s0-.08-.06-.09a3.57,3.57,0,0,0-1.34-.5.33.33,0,0,0-.17,0,1.67,1.67,0,0,1-1,0,1.78,1.78,0,0,0-.69.06,1.14,1.14,0,0,1-.45,0l-1.46-.15a.78.78,0,0,0-.55.15c-.4.26-.82.48-1.24.71a1,1,0,0,1-.28.08,1.28,1.28,0,0,1,.36-.34c.23-.16.47-.31.69-.48s.19-.31,0-.44a.67.67,0,0,0-.33-.1,2.42,2.42,0,0,0-.66.06c-.46.12-.92.28-1.37.41-.15.05-.31.07-.46.11l0-.08.66-.45,0-.09c-1.23-.06-2.46,0-3.7-.06.4,0,.8,0,1.19,0l4.1-.07a5.36,5.36,0,0,0,.7-.09c.08,0,.16-.09.24-.13a.24.24,0,0,0,0-.08,1.57,1.57,0,0,0-.3,0,10.1,10.1,0,0,1-2.76-.6,11.31,11.31,0,0,0-1.53-.35,4.26,4.26,0,0,0-.87-.07H124.4a5.31,5.31,0,0,0-.79.09,20.92,20.92,0,0,1-3,.4l-.28,0-1,.1H119a6.67,6.67,0,0,0-2,.37l0,.18a3.06,3.06,0,0,0-.32.05,1.76,1.76,0,0,0-.3.1s0,.06,0,.09a2.54,2.54,0,0,0,.28.16l.41.12a2,2,0,0,1-1.19,0,3.28,3.28,0,0,0-1.32-.08.69.69,0,0,0-.32.12c-.07,0-.07.18-.09.27a1.55,1.55,0,0,1-1,0,.22.22,0,0,0-.31.17.84.84,0,0,0,0,.19,1.15,1.15,0,0,1-.31-.13.67.67,0,0,0-.64-.1l-.73.23c-.26.08-.51.17-.77.24-.62.17-1.24.32-1.86.48a.54.54,0,0,0-.41.3.77.77,0,0,1-.86.46.76.76,0,0,0-.39.1c-.63.32-1.26.62-1.89.92-.14.07-.28.12-.41.2s-.06.1-.11.18a5.58,5.58,0,0,0,1.36-.05,1,1,0,0,1-.32.51,2.09,2.09,0,0,1-1.14.49,4.76,4.76,0,0,0-1.08.28,11.19,11.19,0,0,1-1.71.71.84.84,0,0,0-.27.16,3.23,3.23,0,0,0-.19.3,2.37,2.37,0,0,0,.32.09,5.09,5.09,0,0,0,2,0c.24-.07.5-.1.75-.15a1.62,1.62,0,0,1,.22,0l0,.08a1.66,1.66,0,0,1-.31.12c-.25,0-.5.09-.75.15a1.19,1.19,0,0,0-.29.12c-.14.06-.28.15-.43.2s-.39.07-.58.12a.53.53,0,0,0-.42.28c.22,0,.43-.11.65-.16a1.17,1.17,0,0,1,.69.12l-.39.29a1.78,1.78,0,0,0,1.15.13c.14,0,.32,0,.29-.23a1.31,1.31,0,0,1,.5-.08,1.06,1.06,0,0,0,.84-.09,1.07,1.07,0,0,1,.34-.09A11.85,11.85,0,0,1,107,66a3.84,3.84,0,0,1,2.31.58,2.25,2.25,0,0,1,1,1.39,5,5,0,0,1,.06.56.7.7,0,0,0,.14,0c.13,0,.3,0,.36.16s0,.31-.16.43l-.19.16a.82.82,0,0,0-.16.22c-.11.23,0,.39.24.41a.77.77,0,0,0,.68-.21.54.54,0,0,1,.73-.06,1.24,1.24,0,0,1,.23.17,2.23,2.23,0,0,0,.88.68c0,.23-.13.3-.29.28a4.8,4.8,0,0,1-.76-.11,2.87,2.87,0,0,0-1,0c0,.29.28.29.41.42h0l2.06.27-.84,1.33a2.41,2.41,0,0,0-.35.07,2.08,2.08,0,0,0-.91.63c-.18.2-.37.53-.56.71s-.26-.83-.17.73h.49v.07s0-.07,0-.07h0c-.22,0-.18.66.26,1.07a1,1,0,0,1,.41.67,1.41,1.41,0,0,0,.06.22c.08.22.18.27.41.2l.25-.11a.21.21,0,0,1,.29.1c-.39.37-.42.56-.17,1a1.93,1.93,0,0,0,.22.36c.25.29.52.59.8.87.1.11.2.19.21.35a.37.37,0,0,0,.3.34.91.91,0,0,1,.64.5c.1,0,.18,0,.25-.07l.53-.2a.56.56,0,0,1,.77.28l.17.31c.22.37.37.42.78.27a.24.24,0,0,1,.31,0,.4.4,0,0,0,.66-.15,4,4,0,0,0,.17-.49,1.44,1.44,0,0,1,.2-.49,1,1,0,0,0,.24-.76c0-.19,0-.37,0-.56a.67.67,0,0,1,.5-.71,2.23,2.23,0,0,0,.44-.21.48.48,0,0,0,.14-.79l-.13-.19c.06-.14.17-.26.15-.37-.05-.41.21-.56.53-.66s.56-.15.85-.23a1.21,1.21,0,0,0,.79-.53,1.34,1.34,0,0,1,.2-.21,1.39,1.39,0,0,0,.34.12,3.76,3.76,0,0,0,1.51-.26,1.59,1.59,0,0,0,.79-.66,5.22,5.22,0,0,1,1.35-1.26.74.74,0,0,0,.23-.2.35.35,0,0,1,.38-.17,4.28,4.28,0,0,0,.88,0,13.15,13.15,0,0,1,1.88-.18,2.55,2.55,0,0,0,1.39-.42,3.35,3.35,0,0,1,1.54-.62C133,71,133.11,70.89,133.26,70.85Zm-1.08-3.45a.29.29,0,0,1,.13,0s.06,0,.15.13a.56.56,0,0,1-.19,0,.6.6,0,0,1-.11-.06Z"/><path class="cls-1" d="M73.57,91.62h0a1.16,1.16,0,0,0,0-.18A.24.24,0,0,0,73.57,91.62Z"/><path class="cls-1" d="M105.55,75c-.1,0-.21,0-.31,0s-.25,0-.29-.08c-.14-.22-.31-.15-.49-.09a.76.76,0,0,1-.2.06c-.29.06-.42,0-.49-.3,0-.1,0-.2-.06-.29a2.33,2.33,0,0,1-.63-.15,2.29,2.29,0,0,1-.48-.43c-.1,0-.25-.69-.41-.72.13-.36.52.26.72-1.3h-.85c.18,0,.51.39.69.22-.11-.46-.44-.08-.78,0,0-.2-.13-.08-.3-.1s-.6,0-.9-.07c-.06,0-.16,0-.18,0-.12-.26-.32-.18-.52-.16l-.62.12a.64.64,0,0,1-.75-.31.75.75,0,0,0-.19-.24c-.08-.08-.19-.18-.29-.18-.64-.05-1.32-.16-1.82.42a.31.31,0,0,1-.11.09.32.32,0,0,1-.35.06c-.08,0-.21,0-.32,0l-.18.1c.09-.21.16-.36.21-.46a4.67,4.67,0,0,0,.84-.22,1.59,1.59,0,0,1,.83-.2.54.54,0,0,0,.56-.36,1.76,1.76,0,0,0-1.22-.24,1.71,1.71,0,0,1-.45,0,.8.8,0,0,0-.8.42,1.22,1.22,0,0,0-.86.1,4.18,4.18,0,0,0-1.44.77.73.73,0,0,0-.31.73c0,.26-.23.51-.56.54a3,3,0,0,0,0-.51.42.42,0,0,1,.12-.38c.16-.17.34-.32.51-.47s.23-.15.27-.35a2.24,2.24,0,0,0-.54,0,2.75,2.75,0,0,0-1.59,1.29,2.61,2.61,0,0,1-.22.27,5.13,5.13,0,0,0-.38.57.59.59,0,0,0,0,.59l.7-.07c0,.11,0,.18-.06.21a.29.29,0,0,1-.16,0c-.15,0-.3-.08-.41.09.39.38.78,0,1.17,0,.15.29.38.32.68.24.65-.17,1.32-.3,2-.45l.49-.07a.81.81,0,0,0,0,.21.78.78,0,0,0,0,.16.41.41,0,0,0,.42-.17c.18-.17.36-.36.54-.54a.34.34,0,0,1,.45-.06l1,.62a4.27,4.27,0,0,0-.43.3.22.22,0,0,0,0,.22s.14,0,.21,0a1,1,0,0,0,.26-.16.67.67,0,0,1,.64-.08,2.18,2.18,0,0,1,1,.67.5.5,0,0,1,0,.75,1.93,1.93,0,0,1-1,.85c-.24.07-.24.25,0,.43,0,0,0,.05.08.12-.24.06-.45.13-.66.17s-.63.11-.94.15a1.6,1.6,0,0,0-1,.73.27.27,0,0,0,0,.38.73.73,0,0,0,1,.1.56.56,0,0,1,.2-.14.48.48,0,0,1,.29,0,.36.36,0,0,0,.44-.08,2.25,2.25,0,0,0,.24-.21l1.43.85c0,.38,0,.45.38.55l.31.06a3.4,3.4,0,0,1,.65.13,2.93,2.93,0,0,0,.92.21c.36,0,.72,0,.94.39.3-.19.36-.37.18-.6a1.61,1.61,0,0,0-.37-.32c-.22-.14-.45-.26-.66-.4a2.56,2.56,0,0,1-.32-.28c.26,0,.25,0,.36.06a2.62,2.62,0,0,0,.51.3,4,4,0,0,0,.68.16c.75.11.86,0,1.14-.66v0c.08-.22.07-.27-.14-.35a.25.25,0,0,1-.2-.28s0,0,0-.06H103a.56.56,0,0,0-.47-.46.41.41,0,0,1-.28-.29,3.17,3.17,0,0,1-.12-.44.85.85,0,0,0-.41-.64.79.79,0,0,1,1.22.07c.14.16.26.33.4.49a1,1,0,0,0,.59.35.47.47,0,0,0,.64-.37c0-.08,0-.15.08-.24a.59.59,0,0,0,.58-.58,1.71,1.71,0,0,0,.29-.08,1,1,0,0,0,.25-.12.36.36,0,0,0,.14-.44A.31.31,0,0,0,105.55,75Z"/><path class="cls-1" d="M90.72,67.41l.33,0-.1.17c.2,0,.31-.27.51-.1l-.23.32c.15,0,.33,0,.33.06,0,.34.25.14.35.1.26-.12.91-.29,1.2-.46.18.12,1-.06,1-.18V67h-.64s0,.31,0,.3,0,.14,0,.14c.2-.13.4-.19.64-.36,0,.33.1.51.37.57,0,0-.13.09-.16.07a1.22,1.22,0,0,0-.85-.15l0,0s0,0,0,0v0c-.13.38-.38.16-.36.44.08,0,.17.11.3.17a5.4,5.4,0,0,0-.59.3,6.37,6.37,0,0,0-.62.44c-.06,0-.07.15-.1.23a1.59,1.59,0,0,1,.72-.2,3.08,3.08,0,0,0,1.43-.23,6.34,6.34,0,0,1,1.86-.46.5.5,0,0,0,.24-.06c.44-.22.87-.44,1.3-.68a1,1,0,0,0,.25-.25l0-.08-.6.09c.06-.25.24-.29.41-.36a1.06,1.06,0,0,0,.42-.23.59.59,0,0,1,.37-.23,1.57,1.57,0,0,0,.58-.23c.35-.31.67-.67,1-1l-.2-.28c.26-.11.47-.23.5-.52a.26.26,0,0,1,.09-.09,6.57,6.57,0,0,1,1-.37,2.16,2.16,0,0,0,.95-.39l.48-.36a6.43,6.43,0,0,1,1.74-1c.5-.19,1-.4,1.49-.61a3,3,0,0,0,.31-.16l0-.07-1,.21,0-.08.65-.23.71-.19c.22-.06.45-.11.67-.19a4,4,0,0,0,.68-.28c.19-.11.46-.06.62-.35l-.33,0c-.2,0-.39,0-.59,0a.55.55,0,0,1-.31,0,.9.9,0,0,0-.8,0l-.73.25a.86.86,0,0,1-.27.05c-.24,0-.49,0-.72,0s-.74.14-1.1.22-.82.22-1.23.29a1.65,1.65,0,0,0-.68.25.73.73,0,0,1-.59.16.75.75,0,0,0-.33,0c-.27.08-.54.17-.8.27a5.6,5.6,0,0,0-1.92.8.39.39,0,0,1-.16.07,1.9,1.9,0,0,0-.86.52,1.06,1.06,0,0,1-.76.35,1.27,1.27,0,0,0-.77.3,3.56,3.56,0,0,1-1,.64,4.72,4.72,0,0,0-1.41.77c-.05,0-.09.11-.14.17s0,0,0,0l.41-.28a.55.55,0,0,0,.66.27,5.11,5.11,0,0,0,.63-.29c.1,0,.22-.15.31-.12a1,1,0,0,0,.88-.2.59.59,0,0,1,.2-.07A5.61,5.61,0,0,0,97.87,64l.22-.13.06.07s-.09,0-.12.07a3.56,3.56,0,0,1-1.32.69.45.45,0,0,0-.39.28l.27.16s0,.06,0,.09a1.47,1.47,0,0,0-1.09,0,1.8,1.8,0,0,0-1,.63H95l.4,0a1.2,1.2,0,0,1-1.09.73c.15-.34.63-.24.84-.6a1.87,1.87,0,0,0-.92.18.73.73,0,0,0,.07-.55c-.27,0-.36.21-.51.39,0-.09,0-.15-.08-.22L93,66c0-.11-.07-.72-.1-.81-.61,0-1,.27-1.44.27h.31c-.26,0-.59.69-.77,1,.12,0,.21.3.39.33-.29.12-.51.35-.72.44C90.71,67.23,90.71,67.39,90.72,67.41ZM93.39,67l.27,0-.21.26-.08,0A1.94,1.94,0,0,0,93.39,67Zm-1.32.18,0,0-.3.15,0-.07Z"/><path class="cls-1" d="M145.05,84.08c0,.25.22.34.42.43s.24.13.08.34l-.11.16c.28.32.28.32.31.81a1.72,1.72,0,0,0,0,.39s.08.07.15.14c0-.19,0-.33.05-.49l.34,0a.7.7,0,0,1,0,.71c-.15.2-.06.36.19.38a3.42,3.42,0,0,0,.44,0h.4c-.1.19-.18.37,0,.49a1.78,1.78,0,0,0,.47.19.29.29,0,0,1-.16.43c-.26.13-.53.23-.83.36,0,.09.07.2.12.32.16.36.13.47-.21.69a1.27,1.27,0,0,0-.28.24.21.21,0,0,0,0,.19s.11.07.14.05c.22-.14.38,0,.54.11a.53.53,0,0,0,.65,0,1,1,0,0,1,.13,0c0,.21-.07.27-.21.29s-.3,0-.45,0a1,1,0,0,0-.39.13c-.24.18-.46.4-.68.6a1.1,1.1,0,0,0-.13.25l1.09.05c.18-.49.2-.49.68-.4a1.3,1.3,0,0,0,.62,0,4.12,4.12,0,0,1,1.56-.11,1.35,1.35,0,0,0,.35,0,.26.26,0,0,0,.18-.17.46.46,0,0,0-.06-.28c0-.06-.13-.09-.23-.15l.27-.25.3-.25a.5.5,0,0,0,.11-.58.51.51,0,0,0-.47-.31l-.31,0a.42.42,0,0,0-.12-.5.72.72,0,0,1-.13-.28,1,1,0,0,0-.44-.65,2.42,2.42,0,0,1-1-1.21.56.56,0,0,0-.61-.38,1.1,1.1,0,0,1-.28,0,1.31,1.31,0,0,1,.36-.7,1.11,1.11,0,0,0,.29-1.16,9.53,9.53,0,0,1-1.42-.21,3.12,3.12,0,0,1,.35-.2c.06,0,.1-.11.15-.16s-.11-.14-.17-.14a5.49,5.49,0,0,0-.8-.06.34.34,0,0,0-.34.3c0,.11-.08.25-.16.29s-.23.25-.14.47C145.45,84.08,145.29,84,145.05,84.08Z"/><path class="cls-1" d="M132.64,75.7a7.13,7.13,0,0,1,.92,0h-.92Z"/><path class="cls-1" d="M138.58,77a2.2,2.2,0,0,0,.89-.54c.23-.24.22-.41,0-.62l-.21-.14a2.13,2.13,0,0,1-.42-.3,1.63,1.63,0,0,1-.17-.47,2,2,0,0,1-.41,0,.76.76,0,0,1-.39-.13c-.22-.16-.21-.17-.45,0,0,0,0,0-.06,0l-.93.08c-.23,0-.48-.17-.7,0,0,0-.08,0-.13,0a2.41,2.41,0,0,0-.38,0,.68.68,0,0,1-.7-.15c.05.31-.13.36-.31.38a.4.4,0,0,1-.43-.23c0-.08-.1-.16-.14-.24a.27.27,0,0,0-.37-.17c-.28.07-.55.16-.9.26a2.69,2.69,0,0,0,.36.22c.24.09.49.16.73.23s.24-.37.26-.17c0,0-.09-.37-.14-.37h0c-.06,0-.11,1-.16,1.28.14.06.31.35.46.44a7,7,0,0,0,2.29.83,3.14,3.14,0,0,0,1.82-.16A5.63,5.63,0,0,1,138.58,77Z"/><path class="cls-1" d="M110.49,93.43c-.07-.13-.14-.25-.19-.36s.64-.25.72-.36c-.11,0,.24-.07.24-.1v-.67h-1.8c0-1.56,0-.28,0-.4l-1-.1a1.3,1.3,0,0,1,.27-.61,2.76,2.76,0,0,0,.31-.62.26.26,0,0,0-.4-.31,1.08,1.08,0,0,0-.42.4c-.29.47-.55,1-.81,1.44a2.83,2.83,0,0,1-.83,1l0,.07.16.19-.34.37c-.08.08-.15.18-.06.27a.38.38,0,0,0,.26.13.83.83,0,0,0,.34-.07,1,1,0,0,1,.75,0,1,1,0,0,0,.68,0,.75.75,0,0,1,.33,0l.32.1c0,.14,0,.27,0,.39a.49.49,0,0,0,.52-.23,6.32,6.32,0,0,0,.39-.5,1.51,1.51,0,0,1,.08.3c0,.36.37.39.5.63,0,0,.17,0,.22,0a.71.71,0,0,0,.08-1.06Z"/><path class="cls-1" d="M153.32,65.63a1.07,1.07,0,0,0,.58.2c.09,0,.19-.17.33-.29l.61.4s0,0,0,.08l-.95.08a1.94,1.94,0,0,0,.32.29,1.48,1.48,0,0,0,.36.1,1,1,0,0,1,.57.28l-.81-.18A4,4,0,0,0,156,67.82a1.35,1.35,0,0,1,.08-.4c0-.11.18-.18.31-.31s0-.14,0-.24c.06-.39.29-.48.58-.22a7.93,7.93,0,0,1,.63.68l-.06.27c.32.19.73.18.89.6l.65-.34a.79.79,0,0,1-.7-.54.65.65,0,0,0-.36-.35,6.51,6.51,0,0,1-.74-.39c-.4-.23-.8-.48-1.19-.72-.06,0-.14-.07-.16-.13a.46.46,0,0,0-.53-.28,1.27,1.27,0,0,0-1.15-.65l.18.4a1.16,1.16,0,0,1-.31-.22,1.27,1.27,0,0,0-.33-.24c-.2-.1-.21-.08-.36.15-.08-.06-.23-.14-.22-.19s-.11-.19-.2-.22-.4-.14-.6-.19a.48.48,0,0,0-.51.14l.1.12C152.5,64.88,152.9,65.27,153.32,65.63Z"/><path class="cls-1" d="M143.25,89.84a.76.76,0,0,0,.88-.1,1.16,1.16,0,0,1,1-.41c.29,0,.42-.17.3-.43a2.26,2.26,0,0,1-.16-.92c0-.35,0-.36.3-.48a.27.27,0,0,0,.2-.35c-.06-.35-.16-.71-.54-.83a1.22,1.22,0,0,0-1.23.18.25.25,0,0,0-.08.34c0,.06.05.12.08.19a1.29,1.29,0,0,1-.67.23c-.21,0-.29.11-.24.32a.68.68,0,0,0,.18.29,2,2,0,0,0,.32.26c-.1.16-.19.3-.28.42s-.2.2-.28.32A.63.63,0,0,0,143.25,89.84Z"/><path class="cls-1" d="M90.31,69.9c.07.15.15.3.23.46s-.07.09-.1.12-.2.19-.11.3a.42.42,0,0,0,.29.14,1,1,0,0,0,.92-.33,2.22,2.22,0,0,1,.33-.28l0,.07a.13.13,0,0,1,0,.06c0,.27.08.31.32.23l.22-.1c.24-.1.47-.21.71-.29a3.07,3.07,0,0,0,1.24-.49,1.69,1.69,0,0,0,.46,0,7.39,7.39,0,0,0,1-.36,2.21,2.21,0,0,0,.46-.36s.09-.13.07-.14c-.19-.17.09-.21.09-.34-.16-.21-.38-.17-.6-.14A5.16,5.16,0,0,0,94,69.2c-.49.28-.6.5-1.16.59-.25,0-.34.08-.34.12v-.15s-.67,0-.8,0-.31-.18-.37-.29a3.83,3.83,0,0,1-.63.2.75.75,0,0,1-.42,0,1,1,0,0,0-1.07.18c-.06,0-.09.13-.14.2A1.31,1.31,0,0,0,90.31,69.9Z"/><path class="cls-1" d="M95.15,116.35s-.07,0-.11-.07a2.09,2.09,0,0,0-.29-.16,2.18,2.18,0,0,1-1.18-.72c-.08-.09-.19-.21-.3-.22a5.24,5.24,0,0,1-1.28-.44,2.32,2.32,0,0,0-1.35-.13,1.38,1.38,0,0,0-1,1c.16.08.27,0,.38-.1a6,6,0,0,1,.5-.38c.34-.21.53-.12.6.28s.09.3.36.33.57.1.86.15c.11,0,.25,0,.34,0a.39.39,0,0,1,.52.15,1.19,1.19,0,0,0,.7.42,1.33,1.33,0,0,1,.24.1c0,.13,0,.24.07.34a3.75,3.75,0,0,0,1.25.25.54.54,0,0,0,.53-.27C95.73,116.67,95.55,116.37,95.15,116.35Z"/><path class="cls-1" d="M93.89,79.61l-.53-.17c-.12,0-.25-.08-.26-.24,0-.31-.23-.41-.49-.45L92,78.61l-.42-.13-.13-.31a.75.75,0,0,0-.48.44,4.09,4.09,0,0,0-.29.83,1.1,1.1,0,0,1-.41.7,2.43,2.43,0,0,0-.26.29s.15,0,.16,0a5.08,5.08,0,0,0,.78-.11v.41c0-.14.44-.23.66-.39a3.91,3.91,0,0,0,.53-.6c.29.11.43.51.87.37A1.38,1.38,0,0,0,93.89,79.61Z"/><path class="cls-1" d="M97.89,117.15a1.25,1.25,0,0,1-1-.06.3.3,0,0,0-.27.06.19.19,0,0,0,.07.3c.24.15.22.4.29.68-.27,0-.5-.06-.72-.07s-.24,0-.28.08,0,.19.07.28.06.06.1.09.12-.1.18-.1c.35,0,.7,0,1,0a.39.39,0,0,1,.23.19c.19.27.27.28.45,0s.2-.25.39-.22a.32.32,0,0,0,.34-.13.41.41,0,0,1,.37-.15h.54a5.24,5.24,0,0,0-1.07-.87A1.07,1.07,0,0,0,97.89,117.15Z"/><path class="cls-1" d="M82.32,75s0,.1.05.12.19-.12.28-.18v-.19c-.13,0-.27.11-.23.24h0S82.34,75,82.32,75Z"/><path class="cls-1" d="M82.65,75v0h0Z"/><path class="cls-1" d="M156.65,65.67l-.23.1a.59.59,0,0,0,.38.31,4,4,0,0,1,1.22.57.93.93,0,0,0,.87.14l.5-.12a2.62,2.62,0,0,0-1.51-1c-.15,0-.26-.07-.33-.21s-.16-.21-.27-.14-.29,0-.42,0L156.4,65c-.16-.09-.3-.22-.52-.14,0,0-.13,0-.19,0l-.44-.12C155.52,65.33,156.08,65.47,156.65,65.67Z"/><path class="cls-1" d="M87.53,73.31c.06-.09.13-.2.24-.35h-.18c-.31.12-.63.13-.94.26s-.42.4-.6.4h.29c-.16.82-.16.64-.54.51-.19.35-.16.49.2.53a.5.5,0,0,1,.53.42c.12-.1.2-.14.27-.21a1.74,1.74,0,0,1,.34-.28,1.28,1.28,0,0,0,.65-.91l-.16-.05C87.59,73.52,87.56,73.42,87.53,73.31Z"/><path class="cls-1" d="M90.8,71.57l0-.07-1.29.29a1,1,0,0,0-.61.49c-.08.13-.15.28-.34.33s-.12.12-.17.2c-.17.31,0,.65-.09,1,.29,0,.4-.23.57-.37a.17.17,0,0,0,.07-.23c-.05-.11,0-.18.14-.18a1.15,1.15,0,0,0,.83-.41l.83-.85A.69.69,0,0,0,90.8,71.57Z"/><path class="cls-1" d="M111.17,71.05a.59.59,0,0,0-.52.4.81.81,0,0,0,.24.7.27.27,0,0,0,.19.06c.35,0,.71-.09,1.06-.16a.51.51,0,0,0,.39-.33l-1-.68h-.37Z"/><path class="cls-1" d="M114.16,132.45a6,6,0,0,0-.61-.32.47.47,0,0,0-.61.18.45.45,0,0,0,.13.62,2.29,2.29,0,0,0,.47.29.62.62,0,0,0,.94-.28c.09-.15.17-.29.06-.46S114.27,132.45,114.16,132.45Z"/><path class="cls-1" d="M155.86,101.06a.48.48,0,0,0,.17.59c.14,0,.39-.11.52-.34a1.75,1.75,0,0,0-.05-1.35.32.32,0,0,0-.55,0l-.28.23A.76.76,0,0,1,155.86,101.06Z"/><path class="cls-1" d="M158.24,102.81a1.78,1.78,0,0,1,.79.42,5.27,5.27,0,0,0,.59.37c.18.1.33,0,.28-.19a1.21,1.21,0,0,1,0-.68c0-.06,0-.15,0-.25a2.24,2.24,0,0,0-.39.08.73.73,0,0,1-.63,0,.88.88,0,0,0-.82,0A.21.21,0,0,0,158.24,102.81Z"/><path class="cls-1" d="M87,71.78h0Z"/><path class="cls-1" d="M88.48,70.51s-.09,0-.11,0a2.35,2.35,0,0,1-.91.41.61.61,0,0,0-.18.09.38.38,0,0,0,0,.11h.23c0,.28-.24.22-.38.28a2.25,2.25,0,0,0,0,.22s0,.08,0,.12l.28-.15-.34.57a3.75,3.75,0,0,0,.94-.47s0-.07.07-.12a6.55,6.55,0,0,0,.32-.58C88.38,70.86,88.54,70.72,88.48,70.51Z"/><path class="cls-1" d="M86.15,76.61a.76.76,0,0,1-.45.41,1.82,1.82,0,0,0-.12.15l.66.07a.82.82,0,0,0,.91-.46c0-.06-.06-.14-.1-.21C86.72,76.12,86.43,76.13,86.15,76.61Z"/><path class="cls-1" d="M87.77,69.85c.08,0,.19-.08.26,0,.26.13.38-.06.53-.2a.22.22,0,0,0,0-.15c-.18-.08,0-.23-.1-.38l-.23.11c-.06,0-.14.09-.18.07s-.21,0-.31.09a1.31,1.31,0,0,1-.27.12,1.2,1.2,0,0,0-.67.46l.22.07-.23.25A9,9,0,0,0,87.77,69.85Z"/><path class="cls-1" d="M97.51,75.24a.19.19,0,0,0-.1-.27.83.83,0,0,0-.87,0c-.27.16-.32.43-.25.79a2.08,2.08,0,0,0,.94-.19A.83.83,0,0,0,97.51,75.24Z"/><path class="cls-1" d="M89.34,70.74c-.25.22-.5.46-.75.7l.06.08.37,0c.46.06.64-.21.79-.54s0-.37-.27-.34A.35.35,0,0,0,89.34,70.74Z"/><path class="cls-1" d="M105.3,95c.16-.34.16-.34-.06-.54a1.86,1.86,0,0,0-.53.74.27.27,0,0,0,.09.34.55.55,0,0,0,.78-.34s0-.07,0-.1Z"/><path class="cls-1" d="M102.81,91.83a2.62,2.62,0,0,0,1.19.67.37.37,0,0,0,.42-.17C103.93,92,103.47,91.63,102.81,91.83Z"/><path class="cls-1" d="M89.31,69.31c.26-.14.48-.27.7-.37a.61.61,0,0,0,.36-.49H90a.71.71,0,0,0-.72.41C89.37,69.06,89.37,69.06,89.31,69.31Z"/><path class="cls-1" d="M83.86,72.58a.62.62,0,0,0-.07.19.18.18,0,0,1,.07,0,5,5,0,0,0,1.33-1.57,1.05,1.05,0,0,0-.3.15A6.81,6.81,0,0,0,83.86,72.58Z"/><path class="cls-1" d="M156.29,98.36l-.43.27a2.56,2.56,0,0,0,.36,1A1.43,1.43,0,0,0,156.29,98.36Z"/><path class="cls-1" d="M92.19,80.68c-.2.27-.58.4-.64.87a2.26,2.26,0,0,0,1.1-.88A.34.34,0,0,0,92.19,80.68Z"/><path class="cls-1" d="M94.52,118.25a5.31,5.31,0,0,0-.56-.2c-.12,0-.26-.07-.34.07s0,.3.18.38a.5.5,0,0,0,.27,0,4.37,4.37,0,0,0,.62-.1C94.61,118.35,94.58,118.27,94.52,118.25Z"/><path class="cls-1" d="M135.28,65.51a.23.23,0,0,0,0,.38.73.73,0,0,0,.85-.15.56.56,0,0,1-.23-.07c-.06,0-.09-.12-.14-.18A.54.54,0,0,0,135.28,65.51Z"/><path class="cls-1" d="M74.34,96.14a1.49,1.49,0,0,0-.62-1c0,.16,0,.3-.07.42s.19.27.29.39S74.15,96.23,74.34,96.14Z"/><path class="cls-1" d="M100.78,118.45a.23.23,0,0,0,.1.2.94.94,0,0,0,.91,0,1.29,1.29,0,0,0-.85-.34A.23.23,0,0,0,100.78,118.45Z"/><path class="cls-1" d="M92,89.67a.52.52,0,0,0-.16.06c-.21.09-.23.26-.05.39a.59.59,0,0,0,.52.1,1.83,1.83,0,0,0,0-.33C92.34,89.66,92.25,89.61,92,89.67Z"/><path class="cls-1" d="M93.53,81.17c-.08.16,0,.26.29.43.11-.16.22-.33.36-.52C93.88,80.9,93.65,80.94,93.53,81.17Z"/><path class="cls-1" d="M86,72a.53.53,0,0,0,.66,0,2.75,2.75,0,0,1,.4-.26c-.19,0-.38,0-.56-.06A.45.45,0,0,0,86,72Z"/><path class="cls-1" d="M169.42,105.36a.44.44,0,0,0,.39-.24l.19-.4a2.07,2.07,0,0,0-.84.41C169.19,105.29,169.26,105.38,169.42,105.36Z"/><path class="cls-1" d="M171.42,79.74a1.2,1.2,0,0,0-.57-.72c-.19.14-.11.3,0,.41A.58.58,0,0,0,171.42,79.74Z"/><path class="cls-1" d="M145,83.75a.46.46,0,0,0,.2-.48c-.16,0-.3,0-.42.09s-.19.19-.1.34A.2.2,0,0,0,145,83.75Z"/><path class="cls-1" d="M91,68.67a2.44,2.44,0,0,0-1.12.54C90.27,69.09,90.73,69.1,91,68.67Z"/><path class="cls-1" d="M104.81,124.85c.07,0,.2,0,.21,0s.29-.26.23-.47C104.88,124.26,104.75,124.4,104.81,124.85Z"/><path class="cls-1" d="M98.38,75.06c-.07-.16-.17-.25-.32-.21s-.31.1-.28.32A.72.72,0,0,0,98.38,75.06Z"/><path class="cls-1" d="M160.81,85.21c-.33.11-.38.21-.32.7C160.79,85.73,160.71,85.45,160.81,85.21Z"/><path class="cls-1" d="M156,87.15c-.05.31.31.24.38.49C156.5,87.2,156.43,87.11,156,87.15Z"/><path class="cls-1" d="M162.49,85.33c.13,0,.17-.15.12-.35a.27.27,0,0,0-.06-.1l-.29.14C162.32,85.28,162.38,85.35,162.49,85.33Z"/><path class="cls-1" d="M152.48,101.16c.11-.14,0-.24-.12-.36l-.29.16C152.25,101.21,152.39,101.28,152.48,101.16Z"/><path class="cls-1" d="M152.08,65a1.47,1.47,0,0,0,.68.55s0,0,.05-.06l-.66-.56A.46.46,0,0,0,152.08,65Z"/><path class="cls-1" d="M103.58,95.34c.16.07.26,0,.29-.2l-.68,0A2.22,2.22,0,0,0,103.58,95.34Z"/><path class="cls-1" d="M93.3,113.59s.11.07.15,0a.14.14,0,0,0,.09-.12c0-.17-.07-.25-.33-.29A2.36,2.36,0,0,0,93.3,113.59Z"/><path class="cls-1" d="M95.82,74.18a.77.77,0,0,0-.51.46C95.55,74.6,95.69,74.46,95.82,74.18Z"/><path class="cls-1" d="M86.34,71.22s0,0,.06-.09l-.06-.08a.16.16,0,0,0-.26,0c0,.06,0,.15,0,.22A2.34,2.34,0,0,0,86.34,71.22Z"/><path class="cls-1" d="M89.78,67.79l-.36.23a.37.37,0,0,0,0,.1C89.71,68.1,89.74,68.07,89.78,67.79Z"/><path class="cls-1" d="M92.93,112.23h.45C93.19,110.66,93.09,110.66,92.93,112.23Z"/><path class="cls-1" d="M90.37,115.68l0,.09c.08,0,.18,0,.23,0s.06-.22,0-.34Z"/><path class="cls-1" d="M162.56,84.86h0v0h0Z"/><path class="cls-1" d="M162.57,84.47c-.19.13,0,.26,0,.39C162.85,84.74,162.85,84.69,162.57,84.47Z"/><path class="cls-1" d="M85.8,72.54l-.43.34C85.73,72.86,85.79,72.8,85.8,72.54Z"/><path class="cls-1" d="M92.34,78.17c0-.16,0-.28-.19-.27s-.09.06-.09.1S92.17,78.18,92.34,78.17Z"/><path class="cls-1" d="M94.93,79.87c.16.11.27,0,.37-.09C95.06,79.62,95.06,79.62,94.93,79.87Z"/><path class="cls-1" d="M103.16,95.09l-.36-.4C102.77,95,103,95,103.16,95.09Z"/><path class="cls-1" d="M103.16,95.09v0h0Z"/><path class="cls-1" d="M146.65,87.6c.13,0,.11-.15,0-.26s-.23.06-.2.19S146.61,87.62,146.65,87.6Z"/><path class="cls-1" d="M96.6,116.08l-.34.11C96.51,116.32,96.56,116.3,96.6,116.08Z"/><path class="cls-1" d="M176.15,119.46l-.06,0c-.07,0-.18.07-.14.27Z"/><path class="cls-1" d="M87.67,70.12c-.19,0-.19,0-.26.18Z"/><path class="cls-1" d="M83.49,72.84l0,0,.13-.17-.06,0A1.74,1.74,0,0,0,83.49,72.84Z"/><path class="cls-2" d="M30.4,167.66c.07-.1.11-.12.14-.12a.08.08,0,0,1,.08.08s-.05.1-.09.16c-.36.57-1.22,1.64-2,1.64a1.16,1.16,0,0,1-1.15-1.29,5.09,5.09,0,0,1,.36-1.69,17.68,17.68,0,0,0-3.16.72,6.54,6.54,0,0,0-.87,2.48c0,.09,0,.12-.09.12a.9.9,0,0,1-.67-.94,3.54,3.54,0,0,1,.41-1.34,4.09,4.09,0,0,1-.93.12c-.94,0-1.22-.63-1.22-.87s0-.15.07-.15a1.46,1.46,0,0,0,1.08.39,7.65,7.65,0,0,0,1.33-.17c.93-1.73,2.37-3.81,2.37-4.63,0-.27-.17-.38-.5-.38A3.87,3.87,0,0,0,22.29,165a1,1,0,0,0,.21.66s0,.09-.12.09a1.16,1.16,0,0,1-.81-1.18c0-1.35,2.08-3.15,3.79-3.15,1,0,1.42.57,1.42,1.09,0,.83-1,2.43-1.89,4a22.14,22.14,0,0,1,3-.46c.84-2.11,2.53-4.48,3.27-4.48a.62.62,0,0,1,.61.35c0,.07-.08.13-.21.21a12,12,0,0,0-2.76,4c.79.1,1.11.54,1.11.66s0,.06,0,.06a2.22,2.22,0,0,0-1.19-.45,5.49,5.49,0,0,0-.54,2c0,.42.19.6.57.6C29.3,169,30.12,168.05,30.4,167.66Z"/><path class="cls-2" d="M34.15,166c0,1.43-1.72,3.53-2.91,3.53a1,1,0,0,1-1-1.1,3,3,0,0,1,2.22-2.4,1.7,1.7,0,0,1,.31,0c.11,0,.15.06.15.12s-.06.1-.21.19a3.27,3.27,0,0,0-1.62,2.35c0,.34.14.51.4.51.8,0,2-1.75,2-3,0-.51-.19-.66-.44-.66a.82.82,0,0,0-.58.27.08.08,0,0,1-.06-.09c0-.21.4-.58.91-.58S34.15,165.4,34.15,166Z"/><path class="cls-2" d="M38.08,165.79c-1.45,0-3.19,2.09-3.19,3,0,.24.1.33.21.33.32,0,1.12-.74,1.92-1.74.38-.5.43-.63.5-.63s.38.29.38.47-.59.8-.59,1.32c0,.3.15.4.33.4.69,0,1.51-1,1.81-1.43.08-.11.11-.12.14-.12a.05.05,0,0,1,.06.06c0,.05,0,.08-.07.18-.37.59-1.28,1.65-2.13,1.65a.72.72,0,0,1-.76-.74,1.23,1.23,0,0,1,.1-.49c-.64.75-1.47,1.53-2.1,1.53a.68.68,0,0,1-.67-.78c0-1.41,2.13-3.38,3.71-3.38a.78.78,0,0,1,.69.29c.07.09,0,.18-.1.13A.72.72,0,0,0,38.08,165.79Z"/><path class="cls-2" d="M40.75,165.37a.67.67,0,0,1,.5.46c0,.07-.07.12-.2.3a9.28,9.28,0,0,0-1.27,2.54c.87-1.25,2.23-2.65,3-2.65a.55.55,0,0,1,.57.53c0,.47-.59,1.1-.59,1.63,0,.29.16.38.39.38.54,0,1.19-.73,1.4-1,.07-.11.11-.12.15-.12a.08.08,0,0,1,.07.07c0,.05-.05.11-.09.17-.31.49-1.14,1.38-1.88,1.38a.79.79,0,0,1-.85-.77c0-.6.67-1.4.67-1.64a.13.13,0,0,0-.13-.13c-.31,0-1.6.83-2.87,3.06-.05.08-.08.11-.14.11a.54.54,0,0,1-.48-.52C39,168.4,40.12,165.37,40.75,165.37Z"/><path class="cls-2" d="M47.18,167.64c-.06.07-.15.14-.23.24-.68.7-1.51,1.44-2.15,1.44a.69.69,0,0,1-.67-.78c0-1.42,2.08-3.38,3.62-3.38a1,1,0,0,1,.77.32c.07.1,0,.18-.09.13a1.33,1.33,0,0,0-.33-.08c-1.4,0-3.09,2.09-3.09,3,0,.24.09.32.2.32a4.36,4.36,0,0,0,2.09-1.7c.39-.52.73-1,.9-1a.3.3,0,0,1,.31.21,6.61,6.61,0,0,0-.7,1.54c-.1.47-.2,1.24-.31,2.26-.14,1.4-.89,3-2.38,3-1,0-1.56-.43-1.56-1.21s.8-1.45,1.63-1.82a.53.53,0,0,1,.2-.06c.1,0,.16,0,.16.1s-.07.14-.21.2a2.1,2.1,0,0,0-1.15,1.7.7.7,0,0,0,.73.76c1.07,0,1.72-1.56,1.87-2.86.08-.64.15-1.2.2-1.49A3,3,0,0,1,47.18,167.64Z"/><path class="cls-2" d="M56.41,169a2.24,2.24,0,0,0,1.88-.79c.05,0,.08.06.08.16a1.79,1.79,0,0,1-1.82,1.38,6.3,6.3,0,0,1-1.67-.38l-.2-.06a2.93,2.93,0,0,1-2.3,1.26c-1.06,0-1.61-.62-1.61-1.16s.65-1,1.27-1a11,11,0,0,1,2.05.3,12.62,12.62,0,0,0,1.12-2.07,1.76,1.76,0,0,1-1.28-1.74c0-.81.53-1.81,1.14-1.81.27,0,.47.13.47.24s0,.08-.14.16a2.16,2.16,0,0,0-.95,1.67,1.12,1.12,0,0,0,.9,1.15c1-2.34,1.88-4.9,3.57-4.9a1.25,1.25,0,0,1,1.23,1.4,4.69,4.69,0,0,1-4,3.93A13.18,13.18,0,0,1,55,168.91,7.71,7.71,0,0,0,56.41,169Zm-5.2.48c0,.32.28.59.75.59a2.48,2.48,0,0,0,1.88-1,5.66,5.66,0,0,0-1.5-.3C51.54,168.76,51.21,169.17,51.21,169.49Zm7.88-7.61c-1.2,0-1.89,2.28-2.82,4.5a4.35,4.35,0,0,0,3.33-3.8C59.6,162.15,59.4,161.88,59.09,161.88Z"/><path class="cls-2" d="M61.84,165.5c.58,0,.78.25.78.58,0,.59-1.09,1.45-2.5,1.76a2.15,2.15,0,0,0-.17.77c0,.36.18.53.59.53,1,0,2.21-1.14,2.63-1.63.09-.11.12-.11.16-.11s.05,0,.05.06,0,.08-.09.18a4.62,4.62,0,0,1-3,1.9,1.06,1.06,0,0,1-1.19-1.18A3.44,3.44,0,0,1,61.84,165.5Zm.18.28c-.54,0-1.36.93-1.8,1.82a2.92,2.92,0,0,0,2-1.65C62.18,165.83,62.12,165.78,62,165.78Z"/><path class="cls-2" d="M66.18,165.79a3.88,3.88,0,1,1,3.87,4A3.79,3.79,0,0,1,66.18,165.79Zm7.18,0a3.31,3.31,0,1,0-6.62,0,3.32,3.32,0,1,0,6.62,0Zm-5.39,0a2.19,2.19,0,0,1,2.21-2.27,2,2,0,0,1,1.5.67l-.42.48a1.4,1.4,0,0,0-1-.49,1.46,1.46,0,0,0-1.46,1.61c0,1,.56,1.7,1.42,1.7A1.77,1.77,0,0,0,71.4,167l.36.51a2.32,2.32,0,0,1-1.62.67A2.16,2.16,0,0,1,68,165.8Z"/></svg>