<svg id="Layer_1" data-name="Layer 1" xmlns="http://www.w3.org/2000/svg" viewBox="0 0 75 75"><defs><style>.cls-1{fill:#fff;}</style></defs><title>css</title><path class="cls-1" d="M66.13,57.87H8.85a6.13,6.13,0,0,1-6.12-6.13V10.11A.87.87,0,0,1,3,9.51a.86.86,0,0,1,.6-.25H66.13a.84.84,0,0,1,.84.84V57A.85.85,0,0,1,66.13,57.87ZM4.41,11V51.74a4.44,4.44,0,0,0,4.44,4.44H65.29V11Z"/><path class="cls-1" d="M14.14,52.58a.85.85,0,0,1-.85-.84,4.44,4.44,0,1,0-8.88,0,.84.84,0,0,1-1.68,0V10.11a6.13,6.13,0,1,1,12.25,0V51.74A.85.85,0,0,1,14.14,52.58Zm-5.29-7a6.11,6.11,0,0,1,4.44,1.91V10.11a4.44,4.44,0,0,0-8.88,0V47.52A6.15,6.15,0,0,1,8.85,45.61Z"/><path class="cls-1" d="M48.24,29.93l1.42,1.41L58,39.71a7.38,7.38,0,0,0,10.39,0L71,37.15a7.36,7.36,0,0,0,0-10.4l-8.36-8.36L61.19,17a7.39,7.39,0,0,0-10.4,0l-.76.78A8.67,8.67,0,0,0,38.84,30.93h0L66.73,58.82a6.16,6.16,0,0,1-4.35,10.51,6.08,6.08,0,0,1-3.71-1.25l.11-.12a4.14,4.14,0,0,0,0-5.89L56.67,60,29.56,32.85a.66.66,0,0,0-.24-.17h0L25.41,31l-6.84-2.88a.84.84,0,0,0-.92.18.83.83,0,0,0-.19.92l2.88,6.85L22,40l0,0a.82.82,0,0,0,.16.25L49.26,67.37l2.11,2.11a4.18,4.18,0,0,0,5.9,0l.19-.2A7.84,7.84,0,0,0,67.92,57.63L40,29.74h0A7,7,0,0,1,48.82,19l-.58.58A7.36,7.36,0,0,0,48.24,29.93ZM23.16,38.48,22.11,36l1.59-1.59,1.58-1.58,2.51,1-1.61,3Zm6-3.64L54.88,60.55,53,62.47,27.84,37.35ZM23.6,32.1l-1.1,1.1-1.09,1.1-1.59-3.78Zm3,6.44L51.77,63.66l-1.91,1.92L24.14,39.87ZM57.59,66.77l-.76.76h0l-.76.76a2.52,2.52,0,0,1-3.5,0L51,66.77l2.52-2.51h0l2.51-2.51,1.52,1.52a2.47,2.47,0,0,1,0,3.51Zm3.61-42.1c.14-.25.26-.51.39-.76a2.56,2.56,0,0,0,.11-.24c.16-.33.29-.68.42-1a1.55,1.55,0,0,1,.07-.23c.09-.28.17-.56.25-.84,0-.12.06-.24.08-.36s.08-.28.11-.42L69.78,28a5.67,5.67,0,0,1,0,8l-2.56,2.55a5.66,5.66,0,0,1-8,0l-7.15-7.15.4-.1c.13,0,.26-.05.38-.09q.42-.11.81-.24l.26-.08c.35-.12.69-.26,1-.41l.25-.12c.26-.12.51-.25.75-.38l.33-.19c.22-.13.43-.26.63-.4a3.88,3.88,0,0,0,.33-.23,6.74,6.74,0,0,0,.62-.47l.28-.21c.28-.25.56-.49.82-.76s.52-.54.76-.83a3,3,0,0,0,.22-.28c.16-.2.32-.4.47-.61l.23-.33c.14-.21.26-.42.39-.63ZM52,18.17a5.66,5.66,0,0,1,8,0l1.13,1.13c0,.12,0,.24,0,.37s0,.32-.07.48-.07.36-.11.54-.07.32-.11.48-.1.35-.15.53l-.15.45-.21.52c-.06.15-.11.29-.18.43a5.12,5.12,0,0,1-.27.52c-.06.14-.13.27-.2.4s-.22.35-.33.52-.14.24-.22.35-.28.37-.42.55l-.21.28-.14.14-7-7Zm-2.56,2.55.68-.68,7,7-.15.13-.25.2c-.19.15-.38.3-.57.43l-.34.22-.54.33c-.12.08-.25.13-.38.21l-.53.27L54,29c-.18.07-.36.15-.54.21s-.29.1-.44.15l-.55.16-.45.11-.56.11-.46.06-.39.05-1.13-1.14A5.67,5.67,0,0,1,49.43,20.72Z"/></svg>