<?xml version="1.0" encoding="utf-8"?>
<!-- Generator: Adobe Illustrator 23.0.3, SVG Export Plug-In . SVG Version: 6.00 Build 0)  -->
<svg version="1.1" id="Layer_1" xmlns="http://www.w3.org/2000/svg" xmlns:xlink="http://www.w3.org/1999/xlink" x="0px" y="0px"
	 viewBox="0 0 150 150" style="enable-background:new 0 0 150 150;" xml:space="preserve">
<style type="text/css">
	.st0{fill:#FFFFFF;}
</style>
<g>
	<path class="st0" d="M73.2,80.2c-23.5,0-43.3-6.9-48.6-16.2c-0.9,1.6-1.5,3.3-1.5,5.1v15.3c0,11.8,22.5,21.4,50.1,21.4
		c27.7,0,50.2-9.6,50.2-21.4V69.1c0-1.8-0.6-3.5-1.5-5.1C116.5,73.3,96.8,80.2,73.2,80.2z"/>
	<path class="st0" d="M73.2,111.7c-23.5,0-43.3-6.9-48.6-16.2c-0.9,1.6-1.5,3.3-1.5,5.1v15.3c0,11.8,22.5,21.3,50.1,21.3
		c27.7,0,50.2-9.6,50.2-21.3v-15.3c0-1.8-0.6-3.5-1.5-5.1C116.5,104.8,96.8,111.7,73.2,111.7z"/>
	<path class="st0" d="M122,33.5C121,42.1,99.6,49,73.2,49c-26.4,0-47.8-6.9-48.8-15.5c-0.9,1.6-1.4,3.2-1.4,4.9v15.3
		C23.1,65.4,45.5,75,73.2,75c27.7,0,50.2-9.6,50.2-21.4V38.4C123.4,36.7,122.9,35,122,33.5z"/>
	<path class="st0" d="M73.2,44.2c27,0,48.9-7.2,48.9-16.2c0-8.9-21.9-16.2-48.9-16.2c-27,0-48.9,7.2-48.9,16.2
		C24.3,37,46.2,44.2,73.2,44.2z"/>
</g>
</svg>
