<?xml version="1.0" encoding="utf-8"?>
<!-- Generator: Adobe Illustrator 23.0.3, SVG Export Plug-In . SVG Version: 6.00 Build 0)  -->
<svg version="1.1" id="Group_1282" xmlns="http://www.w3.org/2000/svg" xmlns:xlink="http://www.w3.org/1999/xlink" x="0px" y="0px"
	 viewBox="0 0 76.6 65.3" style="enable-background:new 0 0 76.6 65.3;" xml:space="preserve">
<style type="text/css">
	.st0{fill-rule:evenodd;clip-rule:evenodd;fill:#FFFFFF;}
</style>
<path class="st0" d="M38.3,0.9c-18,0-32.6,14.6-32.6,32.6c0,14.4,9.3,26.6,22.3,30.9c1.6,0.3,2.2-0.7,2.2-1.6c0-0.8,0-2.8,0-5.5
	c-9.1,2-11-4.4-11-4.4c-1.5-3.8-3.6-4.8-3.6-4.8c-3-2,0.2-2,0.2-2c3.3,0.2,5,3.4,5,3.4c2.9,5,7.6,3.5,9.5,2.7
	c0.3-2.1,1.1-3.5,2.1-4.4c-7.2-0.8-14.8-3.6-14.8-16.1c0-3.6,1.3-6.5,3.4-8.7c-0.3-0.8-1.5-4.1,0.3-8.6c0,0,2.7-0.9,9,3.3
	c2.6-0.7,5.4-1.1,8.1-1.1c2.8,0,5.5,0.4,8.1,1.1c6.2-4.2,8.9-3.3,8.9-3.3c1.8,4.5,0.7,7.8,0.3,8.6c2.1,2.3,3.3,5.2,3.3,8.7
	c0,12.5-7.6,15.3-14.9,16.1c1.2,1,2.2,3,2.2,6c0,4.4,0,7.9,0,8.9c0,0.9,0.6,1.9,2.2,1.6C61.5,60,70.9,47.8,70.9,33.5
	C70.9,15.5,56.3,0.9,38.3,0.9z"/>
</svg>
