<svg id="Layer_1" data-name="Layer 1" xmlns="http://www.w3.org/2000/svg" viewBox="0 0 75 75"><defs><style>.cls-1{fill:#fff;}</style></defs><title>javascript</title><path class="cls-1" d="M66.35,10.15h-58a6.16,6.16,0,0,0-6.15,6.16V56a6.17,6.17,0,0,0,6.15,6.16h58A6.17,6.17,0,0,0,72.51,56V16.31A6.16,6.16,0,0,0,66.35,10.15ZM3.79,16.31a4.55,4.55,0,0,1,4.54-4.55h58a4.55,4.55,0,0,1,4.55,4.55v1.61H3.79ZM70.9,56a4.55,4.55,0,0,1-4.55,4.54h-58A4.55,4.55,0,0,1,3.79,56V19.54H70.9Z"/><path class="cls-1" d="M15,15.65h0A.81.81,0,0,1,15,14a.82.82,0,0,1,.83.8A.79.79,0,0,1,15,15.65Z"/><path class="cls-1" d="M11.33,15.65h-.09a.81.81,0,1,1,0-1.61h.09a.81.81,0,1,1,0,1.61Z"/><path class="cls-1" d="M7.57,15.65h0a.81.81,0,1,1,0-1.61.82.82,0,0,1,.82.8A.79.79,0,0,1,7.57,15.65Z"/><path class="cls-1" d="M22.81,54.59a15.24,15.24,0,0,1-2.36-.19.82.82,0,0,1-.67-.67l-.67-4.21a3.52,3.52,0,0,1-.39-.16l-3.45,2.5a.79.79,0,0,1-.95,0A14.7,14.7,0,0,1,11,48.52a.8.8,0,0,1,0-.94l2.5-3.45c-.06-.13-.11-.26-.16-.39l-4.21-.67a.82.82,0,0,1-.67-.67,14.75,14.75,0,0,1,0-4.72A.83.83,0,0,1,9.12,37l4.21-.66a3.52,3.52,0,0,1,.16-.39L11,32.51a.8.8,0,0,1,0-.94,14.5,14.5,0,0,1,3.34-3.34.79.79,0,0,1,.95,0l3.45,2.5.39-.16.67-4.21a.81.81,0,0,1,.66-.67,14.44,14.44,0,0,1,4.73,0,.8.8,0,0,1,.66.67l.67,4.21.39.16,3.45-2.5a.81.81,0,0,1,.95,0,14.75,14.75,0,0,1,3.34,3.35.8.8,0,0,1,0,.94L32.12,36c.06.12.11.26.16.39l4.21.66a.81.81,0,0,1,.67.67,14,14,0,0,1,0,4.72.8.8,0,0,1-.67.67l-4.2.67-.17.39,2.5,3.45a.78.78,0,0,1,0,.94,14.27,14.27,0,0,1-3.33,3.34.81.81,0,0,1-.95,0l-3.45-2.5-.39.16-.67,4.21a.81.81,0,0,1-.66.67A15.34,15.34,0,0,1,22.81,54.59Zm-1.53-1.7a14.14,14.14,0,0,0,3,0L25,48.8a.82.82,0,0,1,.54-.64,8.22,8.22,0,0,0,1.1-.46.8.8,0,0,1,.84.07l3.35,2.43A12.56,12.56,0,0,0,33,48l-2.43-3.35a.8.8,0,0,1-.07-.83,8.94,8.94,0,0,0,.46-1.1.81.81,0,0,1,.64-.54l4.09-.65A13.34,13.34,0,0,0,35.74,40a13,13,0,0,0-.09-1.52l-4.09-.65a.82.82,0,0,1-.64-.54,8.34,8.34,0,0,0-.46-1.1.82.82,0,0,1,.07-.84L33,32.05a13,13,0,0,0-2.15-2.17l-3.35,2.44a.84.84,0,0,1-.84.07,7.81,7.81,0,0,0-1.1-.46.82.82,0,0,1-.54-.64l-.65-4.09a13,13,0,0,0-3,0l-.65,4.09a.82.82,0,0,1-.54.64,8.34,8.34,0,0,0-1.1.46.84.84,0,0,1-.84-.07L14.8,29.89a12.61,12.61,0,0,0-2.16,2.16l2.44,3.34a.8.8,0,0,1,.06.84,10,10,0,0,0-.45,1.09.8.8,0,0,1-.64.55L10,38.52A12.79,12.79,0,0,0,9.87,40,13.08,13.08,0,0,0,10,41.57l4.09.65a.79.79,0,0,1,.64.54,8.62,8.62,0,0,0,.45,1.09.8.8,0,0,1-.06.84L12.64,48A13.37,13.37,0,0,0,14.8,50.2l3.35-2.43A.82.82,0,0,1,19,47.7a7.76,7.76,0,0,0,1.09.46.82.82,0,0,1,.54.64ZM36.36,42.27h0Z"/><path class="cls-1" d="M22.81,45.33A5.29,5.29,0,1,1,28.1,40,5.3,5.3,0,0,1,22.81,45.33Zm0-9A3.68,3.68,0,1,0,26.48,40,3.69,3.69,0,0,0,22.81,36.36Z"/><path class="cls-1" d="M60,67.58a6.57,6.57,0,0,1-4.66-11.22,6.36,6.36,0,0,1,1.07-.87V35.18a6.57,6.57,0,0,1,.42-11.28.81.81,0,0,1,1.2.71v6.13l2,1,1.95-1V24.61a.81.81,0,0,1,1.2-.71,6.57,6.57,0,0,1,.42,11.28V55.49a6.79,6.79,0,0,1,1.07.87h0a6.58,6.58,0,0,1-1.49,10.41,6.46,6.46,0,0,1-2.1.72A6.18,6.18,0,0,1,60,67.58ZM56.45,26.23A5,5,0,0,0,57.65,34a.82.82,0,0,1,.42.71V56a.8.8,0,0,1-.42.7,5.23,5.23,0,0,0-1.13.85,5,5,0,0,0,0,7,5,5,0,0,0,4.3,1.39,4.87,4.87,0,0,0,1.58-.55,5.11,5.11,0,0,0,1.13-.84,5,5,0,0,0,0-7h0a5.49,5.49,0,0,0-1.13-.85A.82.82,0,0,1,62,56V34.72A.82.82,0,0,1,62.4,34a5,5,0,0,0,1.2-7.78v5a.78.78,0,0,1-.45.72l-2.76,1.39a.85.85,0,0,1-.73,0L56.9,32a.78.78,0,0,1-.45-.72Z"/><path class="cls-1" d="M49.91,47.11a2.86,2.86,0,0,0-1.6-2.42,6.38,6.38,0,0,0-2.52-.78V31.33h.41a.81.81,0,0,0,.7-.4l1.21-2.06a.78.78,0,0,0,.08-.65L47,24.36a.81.81,0,0,0-.77-.56H43.77a.81.81,0,0,0-.77.56l-1.22,3.86a.82.82,0,0,0,.07.65l1.22,2.06a.81.81,0,0,0,.7.4h.41V43.91c-2.36.25-4.12,1.56-4.12,3.2h0V52h0V62.65a4.86,4.86,0,0,0,1.44,3.48A4.91,4.91,0,0,0,45,67.58h0a4.93,4.93,0,0,0,4.92-4.93V47.11ZM43.43,28.36l.93-2.94h1.25l.93,2.94-.8,1.36H44.23Zm4.86,21.17V52c0,.76-1.39,1.6-3.3,1.6h0c-1.86,0-3.28-.84-3.31-1.6V49.53l0,0c.2.11.4.21.61.3l.11,0a7,7,0,0,0,.69.23.35.35,0,0,1,.11,0,7.09,7.09,0,0,0,.78.14h.08a7.86,7.86,0,0,0,1.77,0h.07a6.17,6.17,0,0,0,.79-.14.38.38,0,0,1,.1,0,6.38,6.38,0,0,0,.7-.23l.1,0a5.09,5.09,0,0,0,.62-.3Zm-4.11-4v1.57a.81.81,0,1,0,1.61,0V45.54a4.8,4.8,0,0,1,1.69.54c.52.31.81.68.81,1,0,.76-1.41,1.62-3.3,1.62a6,6,0,0,1-1.32-.14h0c-1.19-.28-2-.91-2-1.48S42.71,45.74,44.18,45.54Zm4.11,17.11A3.31,3.31,0,0,1,45,66h0a3.31,3.31,0,0,1-3.31-3.31V54.39l0,0c.2.1.4.2.62.29l.09,0a5.36,5.36,0,0,0,.71.23l.09,0a6.67,6.67,0,0,0,.8.14h.06a8.72,8.72,0,0,0,.9.05h0a8.69,8.69,0,0,0,.89-.05H46a6.34,6.34,0,0,0,.78-.14l.1,0a6,6,0,0,0,.68-.22l.13,0a6.05,6.05,0,0,0,.57-.28l.08,0Z"/></svg>