<?xml version="1.0" encoding="utf-8"?>
<!-- Generator: Adobe Illustrator 23.0.3, SVG Export Plug-In . SVG Version: 6.00 Build 0)  -->
<svg version="1.1" id="Layer_1" xmlns="http://www.w3.org/2000/svg" xmlns:xlink="http://www.w3.org/1999/xlink" x="0px" y="0px"
	 viewBox="0 0 250 250" style="enable-background:new 0 0 250 250;" xml:space="preserve">
<style type="text/css">
	.st0{fill:#FFFFFF;}
	.st1{fill-rule:evenodd;clip-rule:evenodd;fill:#FFFFFF;}
	.st2{clip-path:url(#XMLID_4_);}
</style>
<g>
	<path class="st0" d="M123.6,195.9c-0.8,0-1.6-0.2-2.3-0.6l-7.2-4.3c-1.1-0.6-0.6-0.8-0.2-0.9c1.4-0.5,1.7-0.6,3.3-1.5
		c0.2-0.1,0.4-0.1,0.5,0l5.6,3.3c0.2,0.1,0.5,0.1,0.7,0l21.7-12.5c0.2-0.1,0.3-0.3,0.3-0.6v-25.1c0-0.2-0.1-0.5-0.3-0.6L124,140.6
		c-0.2-0.1-0.5-0.1-0.7,0l-21.7,12.5c-0.2,0.1-0.3,0.4-0.3,0.6v25.1c0,0.2,0.1,0.5,0.3,0.6l5.9,3.4c3.2,1.6,5.2-0.3,5.2-2.2v-24.7
		c0-0.3,0.3-0.6,0.6-0.6h2.8c0.3,0,0.6,0.3,0.6,0.6v24.7c0,4.3-2.3,6.8-6.4,6.8c-1.3,0-2.2,0-5-1.4l-5.7-3.3c-1.4-0.8-2.3-2.3-2.3-4
		v-25.1c0-1.6,0.9-3.1,2.3-4l21.7-12.5c1.4-0.8,3.2-0.8,4.6,0l21.7,12.5c1.4,0.8,2.3,2.3,2.3,4v25.1c0,1.6-0.9,3.1-2.3,4l-21.7,12.5
		C125.2,195.7,124.4,195.9,123.6,195.9z"/>
	<path class="st0" d="M130.3,178.7c-9.5,0-11.5-4.4-11.5-8c0-0.3,0.3-0.6,0.6-0.6h2.8c0.3,0,0.6,0.2,0.6,0.5
		c0.4,2.9,1.7,4.3,7.4,4.3c4.6,0,6.5-1,6.5-3.5c0-1.4-0.6-2.4-7.7-3.1c-5.9-0.6-9.6-1.9-9.6-6.7c0-4.4,3.7-7,9.9-7
		c7,0,10.4,2.4,10.8,7.6c0,0.2,0,0.3-0.2,0.5c-0.1,0.1-0.3,0.2-0.5,0.2h-2.8c-0.3,0-0.5-0.2-0.6-0.5c-0.7-3-2.3-4-6.8-4
		c-5,0-5.6,1.7-5.6,3c0,1.6,0.7,2,7.4,2.9c6.7,0.9,9.8,2.1,9.8,6.8C141.1,176,137.2,178.7,130.3,178.7z"/>
</g>
<g>
	<path class="st0" d="M161.6,152.4c0,2.3-1.9,4.2-4.2,4.2c-2.3,0-4.2-1.9-4.2-4.2c0-2.4,1.9-4.2,4.2-4.2
		C159.7,148.2,161.6,150,161.6,152.4z M153.9,152.4c0,1.9,1.6,3.5,3.5,3.5c1.9,0,3.5-1.6,3.5-3.5c0-1.9-1.6-3.5-3.5-3.5
		C155.5,148.9,153.9,150.4,153.9,152.4z M155.9,150h1.6c0.6,0,1.6,0,1.6,1.2c0,0.9-0.6,1-0.9,1.2c0.6,0,0.7,0.5,0.8,1.1
		c0,0.4,0.1,1,0.2,1.2h-1c0-0.2-0.2-1.4-0.2-1.5c-0.1-0.3-0.2-0.4-0.5-0.4h-0.8v1.9h-0.9V150z M156.8,152.1h0.7
		c0.6,0,0.7-0.4,0.7-0.7c0-0.6-0.4-0.6-0.7-0.6h-0.8V152.1z"/>
</g>
<path class="st1" d="M56.4,97.9c0-1-0.5-1.9-1.4-2.4L32,82.2c-0.4-0.2-0.8-0.3-1.3-0.4c0,0-0.2,0-0.2,0c-0.4,0-0.9,0.1-1.3,0.4
	l-23,13.2c-0.9,0.5-1.4,1.4-1.4,2.4l0.1,35.7c0,0.5,0.3,1,0.7,1.2c0.4,0.3,1,0.3,1.4,0l13.7-7.8c0.9-0.5,1.4-1.4,1.4-2.4v-16.7
	c0-1,0.5-1.9,1.4-2.4l5.8-3.4c0.4-0.3,0.9-0.4,1.4-0.4c0.5,0,1,0.1,1.4,0.4l5.8,3.4c0.9,0.5,1.4,1.4,1.4,2.4v16.7
	c0,1,0.5,1.9,1.4,2.4l13.7,7.8c0.4,0.3,1,0.3,1.4,0c0.4-0.2,0.7-0.7,0.7-1.2L56.4,97.9z"/>
<path class="st1" d="M167.1,48.9c-0.4-0.2-1-0.2-1.4,0c-0.4,0.2-0.7,0.7-0.7,1.2v35.3c0,0.3-0.2,0.7-0.5,0.8c-0.3,0.2-0.7,0.2-1,0
	l-5.8-3.3c-0.9-0.5-1.9-0.5-2.8,0l-23,13.3c-0.9,0.5-1.4,1.4-1.4,2.4v26.6c0,1,0.5,1.9,1.4,2.4l23,13.3c0.9,0.5,1.9,0.5,2.8,0
	l23-13.3c0.9-0.5,1.4-1.4,1.4-2.4V59c0-1-0.5-1.9-1.4-2.4L167.1,48.9z M165,116.5c0,0.2-0.1,0.5-0.3,0.6l-7.9,4.6
	c-0.2,0.1-0.5,0.1-0.7,0l-7.9-4.6c-0.2-0.1-0.3-0.4-0.3-0.6v-9.1c0-0.2,0.1-0.5,0.3-0.6l7.9-4.6c0.2-0.1,0.5-0.1,0.7,0l7.9,4.6
	c0.2,0.1,0.3,0.4,0.3,0.6V116.5z"/>
<g>
	<path class="st1" d="M243.8,107.1c0.9-0.5,1.4-1.4,1.4-2.4v-6.4c0-1-0.5-1.9-1.4-2.4l-22.9-13.3c-0.9-0.5-1.9-0.5-2.8,0l-23,13.3
		c-0.9,0.5-1.4,1.4-1.4,2.4v26.6c0,1,0.5,1.9,1.4,2.4l22.9,13c0.8,0.5,1.9,0.5,2.7,0l13.8-7.7c0.4-0.2,0.7-0.7,0.7-1.2
		c0-0.5-0.3-1-0.7-1.2l-23.2-13.3c-0.4-0.2-0.7-0.7-0.7-1.2v-8.3c0-0.5,0.3-1,0.7-1.2l7.2-4.2c0.4-0.2,1-0.2,1.4,0l7.2,4.2
		c0.4,0.2,0.7,0.7,0.7,1.2v6.6c0,0.5,0.3,1,0.7,1.2c0.4,0.2,1,0.2,1.4,0L243.8,107.1z"/>
	<path class="st1" d="M219.2,105.9c0.2-0.1,0.4-0.1,0.5,0l4.4,2.5c0.2,0.1,0.3,0.3,0.3,0.5v5.1c0,0.2-0.1,0.4-0.3,0.5l-4.4,2.5
		c-0.2,0.1-0.4,0.1-0.5,0l-4.4-2.5c-0.2-0.1-0.3-0.3-0.3-0.5v-5.1c0-0.2,0.1-0.4,0.3-0.5L219.2,105.9z"/>
</g>
<g>
	<defs>
		<path id="XMLID_143_" d="M94.9,82.7c-0.9-0.5-1.9-0.5-2.8,0L69.3,95.9c-0.9,0.5-1.4,1.4-1.4,2.4v26.4c0,1,0.5,1.9,1.4,2.4
			l22.9,13.2c0.9,0.5,1.9,0.5,2.8,0l22.9-13.2c0.9-0.5,1.4-1.4,1.4-2.4V98.3c0-1-0.5-1.9-1.4-2.4L94.9,82.7z"/>
	</defs>
	<use xlink:href="#XMLID_143_"  style="overflow:visible;fill-rule:evenodd;clip-rule:evenodd;fill:#FFFFFF;"/>
	<clipPath id="XMLID_4_">
		<use xlink:href="#XMLID_143_"  style="overflow:visible;"/>
	</clipPath>
	<g class="st2">
		<path class="st0" d="M92.1,82.7L69.2,95.9c-0.9,0.5-1.5,1.4-1.5,2.4v26.4c0,0.7,0.3,1.3,0.7,1.8l25.8-44.1
			C93.5,82.3,92.7,82.4,92.1,82.7z"/>
		<path class="st0" d="M94.3,140.7c0.2-0.1,0.4-0.1,0.6-0.3l22.9-13.2c0.9-0.5,1.4-1.4,1.4-2.4V98.3c0-0.7-0.3-1.4-0.8-1.9
			L94.3,140.7z"/>
		<path class="st0" d="M117.8,95.9l-23-13.2c-0.2-0.1-0.5-0.2-0.7-0.3l-25.8,44.1c0.2,0.2,0.5,0.5,0.8,0.6l23,13.2
			c0.7,0.4,1.4,0.5,2.1,0.3l24.2-44.2C118.3,96.2,118.1,96.1,117.8,95.9z"/>
	</g>
	<g class="st2">
		<path class="st0" d="M119.3,124.8V98.3c0-1-0.6-1.9-1.5-2.4l-23-13.2c-0.3-0.2-0.5-0.3-0.8-0.3l25.2,43
			C119.3,125.2,119.3,125,119.3,124.8z"/>
		<path class="st0" d="M69.2,95.9c-0.9,0.5-1.5,1.4-1.5,2.4v26.4c0,1,0.6,1.9,1.5,2.4l23,13.2c0.5,0.3,1.2,0.4,1.8,0.3L69.3,95.8
			L69.2,95.9z"/>
		<polygon class="st0" points="91.4,77.9 91.1,78 91.5,78 		"/>
		<path class="st0" d="M117.9,127.2c0.7-0.4,1.2-1,1.4-1.8L94,82.4c-0.7-0.1-1.4,0-1.9,0.3L69.3,95.8l24.6,44.9c0.4,0,0.7-0.2,1-0.3
			L117.9,127.2z"/>
		<polygon class="st0" points="120,126.7 119.8,126.5 119.8,126.8 		"/>
		<path class="st0" d="M117.9,127.2l-22.9,13.2c-0.3,0.2-0.7,0.3-1,0.3l0.5,0.8l25.5-14.7v-0.3l-0.6-1.1
			C119,126.1,118.5,126.8,117.9,127.2z"/>
		<path class="st0" d="M117.9,127.2l-22.9,13.2c-0.3,0.2-0.7,0.3-1,0.3l0.5,0.8l25.5-14.7v-0.3l-0.6-1.1
			C119,126.1,118.5,126.8,117.9,127.2z"/>
	</g>
</g>
</svg>
