<?xml version="1.0" encoding="utf-8"?>
<!-- Generator: Adobe Illustrator 23.0.3, SVG Export Plug-In . SVG Version: 6.00 Build 0)  -->
<svg version="1.1" id="Layer_1" xmlns="http://www.w3.org/2000/svg" xmlns:xlink="http://www.w3.org/1999/xlink" x="0px" y="0px"
	 viewBox="0 0 150 150" style="enable-background:new 0 0 150 150;" xml:space="preserve">
<style type="text/css">
	.st0{fill:#FFFFFF;}
</style>
<path class="st0" d="M121.8,94.9H57.1c-1,0-1.8-0.8-1.8-1.7V52.6c0-1,0.8-1.7,1.8-1.7h64.7c1,0,1.8,0.8,1.8,1.7v40.6
	C123.6,94.1,122.8,94.9,121.8,94.9z M103.9,107.7h-6.6v-7.9H81.6v7.9H75c-1.4,0-2.5,1.1-2.5,2.5c0,1.4,1.1,2.5,2.5,2.5h9h10.8h9
	c1.4,0,2.5-1.1,2.5-2.5C106.4,108.8,105.3,107.7,103.9,107.7z M62.8,45.9h-5.7c-0.3,0-0.7,0-1,0.1c-0.2-0.1-0.4-0.1-0.6-0.1H31
	c-1.4,0-2.5,1.1-2.5,2.5c0,1.4,1.1,2.5,2.5,2.5h19.7c-0.2,0.6-0.2,1.1-0.2,1.7v4.6H31c-1.4,0-2.5,1.1-2.5,2.5c0,1.4,1.1,2.5,2.5,2.5
	h19.4v6.3H31c-1.4,0-2.5,1.1-2.5,2.5c0,1.4,1.1,2.5,2.5,2.5h19.4v19.8c0,3.7,3,6.7,6.7,6.7h5.7v10.3c0,1.4-1.1,2.5-2.4,2.5H26
	c-1.4,0-2.5-1.1-2.5-2.5V39c0-1.4,1.1-2.5,2.5-2.5h34.4c1.3,0,2.4,1.1,2.4,2.5V45.9z M39.4,94.5c0,2.1,1.7,3.8,3.8,3.8
	c2.1,0,3.8-1.7,3.8-3.8c0-2.1-1.7-3.8-3.8-3.8C41.1,90.7,39.4,92.4,39.4,94.5z"/>
</svg>
