<?xml version="1.0" encoding="utf-8"?>
<!-- Generator: Adobe Illustrator 23.0.3, SVG Export Plug-In . SVG Version: 6.00 Build 0)  -->
<svg version="1.1" id="Layer_1" xmlns="http://www.w3.org/2000/svg" xmlns:xlink="http://www.w3.org/1999/xlink" x="0px" y="0px"
	 viewBox="0 0 200 200" style="enable-background:new 0 0 200 200;" xml:space="preserve">
<style type="text/css">
	.st0{fill:#FFFFFF;}
</style>
<path class="st0" d="M20,72.6h28.2c8.3,0.1,14.3,2.5,18,7.1c3.7,4.7,4.9,11.1,3.7,19.2c-0.5,3.7-1.6,7.4-3.3,10.9
	c-1.6,3.6-3.9,6.8-6.7,9.7c-3.5,3.6-7.3,6-11.3,6.9c-4,1-8.1,1.5-12.4,1.5H23.6l-4,20H5L20,72.6L20,72.6 M32.3,84.6L26,116.1
	c0.4,0.1,0.8,0.1,1.3,0.1c0.5,0,1,0,1.5,0c6.7,0.1,12.3-0.6,16.8-2c4.5-1.5,7.5-6.6,9-15.4c1.3-7.4,0-11.6-3.8-12.7
	c-3.7-1.1-8.4-1.6-14-1.6c-0.8,0.1-1.6,0.1-2.4,0.1c-0.7,0-1.4,0-2.2,0L32.3,84.6"/>
<path class="st0" d="M86.5,52.5H101l-4.1,20.1h13c7.1,0.1,12.5,1.6,16,4.4c3.6,2.8,4.6,8.1,3.2,16l-7,35h-14.7l6.7-33.4
	c0.7-3.5,0.5-6-0.6-7.5c-1.1-1.5-3.5-2.2-7.3-2.2l-11.7-0.1L85.9,128H71.4L86.5,52.5L86.5,52.5"/>
<path class="st0" d="M144.7,72.6h28.2c8.3,0.1,14.3,2.5,18,7.1c3.7,4.7,4.9,11.1,3.7,19.2c-0.5,3.7-1.6,7.4-3.3,10.9
	c-1.6,3.6-3.9,6.8-6.7,9.7c-3.5,3.6-7.3,6-11.3,6.9c-4,1-8.1,1.5-12.4,1.5h-12.6l-4,20h-14.6L144.7,72.6L144.7,72.6 M157,84.6
	l-6.3,31.5c0.4,0.1,0.8,0.1,1.3,0.1c0.5,0,1,0,1.5,0c6.7,0.1,12.3-0.6,16.8-2c4.5-1.5,7.5-6.6,9-15.4c1.3-7.4,0-11.6-3.8-12.7
	c-3.7-1.1-8.4-1.6-14-1.6c-0.8,0.1-1.6,0.1-2.4,0.1c-0.7,0-1.4,0-2.2,0L157,84.6"/>
</svg>
