<svg id="Layer_1" data-name="Layer 1" xmlns="http://www.w3.org/2000/svg" viewBox="0 0 75 75"><defs><style>.cls-1{fill:#fff;}</style></defs><title>typescript</title><path class="cls-1" d="M37.77,67.39c-1.84,0-18-.1-18-3.7S35.93,60,37.77,60s18,.1,18,3.69S39.61,67.39,37.77,67.39Zm-16.29-3.7c1,.78,6.38,2.09,16.29,2.09s15.33-1.31,16.28-2.09c-.95-.77-6.38-2.08-16.28-2.08S22.43,62.92,21.48,63.69Zm32.69.13h0Z"/><path class="cls-1" d="M67.39,48.75H8.15a.81.81,0,0,1-.81-.81V14.67a.81.81,0,0,1,.81-.81H67.39a.81.81,0,0,1,.81.81V47.94A.81.81,0,0,1,67.39,48.75ZM9,47.14H66.58V15.48H9Z"/><path class="cls-1" d="M69.39,9.12H6.15A3.55,3.55,0,0,0,2.6,12.67V52a3.56,3.56,0,0,0,3.55,3.55H31l-2,6.76a.85.85,0,0,0,.13.71.82.82,0,0,0,.65.33h16a.79.79,0,0,0,.64-.33.82.82,0,0,0,.13-.71l-2-6.76H69.39A3.56,3.56,0,0,0,72.94,52V12.67A3.55,3.55,0,0,0,69.39,9.12ZM44.71,61.77H30.83l1.82-6.18H42.89ZM71.32,52A1.94,1.94,0,0,1,69.39,54H6.15A1.93,1.93,0,0,1,4.22,52V12.67a1.93,1.93,0,0,1,1.93-1.94H69.39a1.94,1.94,0,0,1,1.93,1.94Z"/><path class="cls-1" d="M32.21,52.17H31a.81.81,0,0,1,0-1.62h1.22a.81.81,0,0,1,0,1.62Z"/><path class="cls-1" d="M39.41,52.17H36.32a.81.81,0,0,1,0-1.62h3.09a.81.81,0,0,1,0,1.62Z"/><path class="cls-1" d="M44.74,52.17H43.53a.81.81,0,0,1,0-1.62h1.21a.81.81,0,1,1,0,1.62Z"/><path class="cls-1" d="M11.81,18.81a.81.81,0,0,1,.82-.82h0a.8.8,0,0,1,.79.82h0a.8.8,0,0,1-.79.81h0A.82.82,0,0,1,11.81,18.81Z"/><path class="cls-1" d="M11.82,22.84a.79.79,0,0,1,.81-.8h0a.79.79,0,0,1,.79.8h0a.8.8,0,0,1-.79.81h0A.8.8,0,0,1,11.82,22.84Z"/><path class="cls-1" d="M11.81,30.93a.82.82,0,0,1,.82-.82h0a.81.81,0,0,1,.8.82h0a.81.81,0,0,1-.8.81h0A.82.82,0,0,1,11.81,30.93Z"/><path class="cls-1" d="M11.81,35a.8.8,0,0,1,.81-.8h0a.8.8,0,0,1,.81.8h0a.82.82,0,0,1-.81.82h0A.82.82,0,0,1,11.81,35Z"/><path class="cls-1" d="M11.81,43.05a.81.81,0,0,1,.82-.81h0a.8.8,0,0,1,.8.81h0a.8.8,0,0,1-.8.81h0A.81.81,0,0,1,11.81,43.05Z"/><path class="cls-1" d="M22.55,19.61H16.7a.81.81,0,1,1,0-1.61h5.85a.81.81,0,1,1,0,1.61Z"/><path class="cls-1" d="M30.57,19.61H26.39a.81.81,0,1,1,0-1.61h4.18a.81.81,0,0,1,0,1.61Z"/><path class="cls-1" d="M39.79,19.61H34.47a.81.81,0,1,1,0-1.61h5.32a.81.81,0,1,1,0,1.61Z"/><path class="cls-1" d="M20.6,23.65H16.7a.81.81,0,1,1,0-1.62h3.9a.81.81,0,1,1,0,1.62Z"/><path class="cls-1" d="M32.05,23.65H24.78a.81.81,0,1,1,0-1.62h7.27a.81.81,0,0,1,0,1.62Z"/><path class="cls-1" d="M39.46,23.65H36.09a.81.81,0,1,1,0-1.62h3.37a.81.81,0,0,1,0,1.62Z"/><path class="cls-1" d="M46.73,23.65H43.36a.81.81,0,0,1,0-1.62h3.37a.81.81,0,1,1,0,1.62Z"/><path class="cls-1" d="M53.23,23.65H50.64a.81.81,0,0,1,0-1.62h2.59a.81.81,0,1,1,0,1.62Z"/><path class="cls-1" d="M25.11,27.69H16.7a.81.81,0,1,1,0-1.61h8.41a.81.81,0,1,1,0,1.61Z"/><path class="cls-1" d="M33.06,27.69H28.82a.81.81,0,1,1,0-1.61h4.24a.81.81,0,1,1,0,1.61Z"/><path class="cls-1" d="M39.46,27.69H36.9a.81.81,0,1,1,0-1.61h2.56a.81.81,0,0,1,0,1.61Z"/><path class="cls-1" d="M48.08,27.69H43.36a.81.81,0,0,1,0-1.61h4.72a.81.81,0,0,1,0,1.61Z"/><path class="cls-1" d="M20.6,31.73H16.7a.81.81,0,1,1,0-1.61h3.9a.81.81,0,1,1,0,1.61Z"/><path class="cls-1" d="M22.55,35.78H16.7a.81.81,0,1,1,0-1.62h5.85a.81.81,0,1,1,0,1.62Z"/><path class="cls-1" d="M19.63,39.82H16.7a.81.81,0,1,1,0-1.62h2.93a.81.81,0,0,1,0,1.62Z"/><path class="cls-1" d="M27,39.82H23.16a.81.81,0,0,1,0-1.62H27a.81.81,0,1,1,0,1.62Z"/><path class="cls-1" d="M35.9,39.82H30.43a.81.81,0,0,1,0-1.62H35.9a.81.81,0,0,1,0,1.62Z"/><path class="cls-1" d="M35.9,43.86H29.29a.81.81,0,1,1,0-1.62H35.9a.81.81,0,0,1,0,1.62Z"/><path class="cls-1" d="M44,43.86H39.79a.81.81,0,0,1,0-1.62H44a.81.81,0,0,1,0,1.62Z"/><path class="cls-1" d="M25.4,43.86H16.7a.81.81,0,1,1,0-1.62h8.7a.81.81,0,0,1,0,1.62Z"/><path class="cls-1" d="M29.76,35.78H26.39a.81.81,0,0,1,0-1.62h3.37a.81.81,0,1,1,0,1.62Z"/><path class="cls-1" d="M41.26,35.78h-7.6a.81.81,0,0,1,0-1.62h7.6a.81.81,0,0,1,0,1.62Z"/><path class="cls-1" d="M30.57,31.73H24.78a.81.81,0,1,1,0-1.61h5.79a.81.81,0,0,1,0,1.61Z"/><path class="cls-1" d="M37.87,31.73h-3.4a.81.81,0,1,1,0-1.61h3.4a.81.81,0,1,1,0,1.61Z"/><path class="cls-1" d="M46.33,31.73H41.75a.81.81,0,1,1,0-1.61h4.58a.81.81,0,1,1,0,1.61Z"/></svg>